<svg width="24" height="25" viewBox="0 0 24 25" fill="none" xmlns="http://www.w3.org/2000/svg">
<path fill-rule="evenodd" clip-rule="evenodd" d="M12 2.38088C6.41136 2.38088 1.88088 6.91136 1.88088 12.5C1.88088 18.0886 6.41136 22.6191 12 22.6191C17.5886 22.6191 22.1191 18.0886 22.1191 12.5C22.1191 6.91136 17.5886 2.38088 12 2.38088ZM0 12.5C0 5.87258 5.37258 0.5 12 0.5C18.6274 0.5 24 5.87258 24 12.5C24 19.1274 18.6274 24.5 12 24.5C5.37258 24.5 0 19.1274 0 12.5Z" fill="#05053C"/>
<path d="M13.5047 16.7132C13.4295 16.6379 13.4295 16.4875 13.3542 16.337C13.3542 16.1865 13.279 16.036 13.279 15.8856C13.1285 16.036 12.9781 16.1113 12.8276 16.2618C12.6771 16.4122 12.4514 16.4875 12.3009 16.5627C12.0752 16.6379 11.9248 16.7132 11.6238 16.7884C11.3981 16.8636 11.0972 16.8636 10.8715 16.8636C10.4201 16.8636 10.0439 16.7884 9.66772 16.6379C9.29154 16.4875 8.9906 16.337 8.68966 16.1113C8.38872 15.8856 8.23825 15.5846 8.08778 15.2837C7.93731 14.9828 7.86207 14.6066 7.86207 14.2304C7.86207 13.3276 8.23825 12.5752 8.91536 12.1238C9.59248 11.5972 10.6458 11.3715 12 11.3715H13.279V10.8448C13.279 10.3934 13.1285 10.0925 12.9028 9.86677C12.6019 9.64107 12.2257 9.4906 11.6991 9.4906C11.2477 9.4906 10.9467 9.56583 10.721 9.79154C10.4953 10.0172 10.4201 10.2429 10.4201 10.5439H8.16301C8.16301 10.1677 8.23825 9.79154 8.38872 9.4906C8.53919 9.18966 8.76489 8.88871 9.14107 8.58777C9.44201 8.36207 9.81818 8.13636 10.2696 7.98589C10.721 7.83542 11.2477 7.76019 11.8495 7.76019C12.3762 7.76019 12.8276 7.83542 13.279 7.98589C13.7304 8.13636 14.1066 8.28683 14.4828 8.58777C14.7837 8.81348 15.0846 9.18965 15.2351 9.56583C15.3856 9.94201 15.5361 10.3934 15.5361 10.9201V14.6818C15.5361 15.1332 15.5361 15.5094 15.6113 15.8103C15.6865 16.1113 15.7618 16.4122 15.837 16.5627V16.7132H13.5047ZM11.3229 15.1332C11.5486 15.1332 11.7743 15.1332 11.9248 15.058C12.1505 14.9828 12.3009 14.9075 12.4514 14.8323C12.6019 14.7571 12.7524 14.6818 12.8276 14.5313L13.1285 14.2304V12.7257H12C11.6238 12.7257 11.3229 12.7257 11.0972 12.8009C10.8715 12.8762 10.6458 12.9514 10.4953 13.1019C10.3448 13.2523 10.1944 13.3276 10.1191 13.5533C10.0439 13.7038 10.0439 13.9295 10.0439 14.0799C10.0439 14.3809 10.1191 14.6066 10.3448 14.8323C10.5705 15.058 10.9467 15.1332 11.3229 15.1332Z" fill="#05053C"/>
</svg>
