<svg width="14" height="12" viewBox="0 0 14 12" fill="none" xmlns="http://www.w3.org/2000/svg">
<path d="M0.500047 10.273C0.500047 10.72 0.677547 11.1486 0.993567 11.4647C1.30961 11.7807 1.73815 11.9582 2.18519 11.9582H11.8149C12.2619 11.9582 12.6904 11.7807 13.0065 11.4647C13.3225 11.1486 13.5 10.7201 13.5 10.273V7.62494H12.0556V10.273C12.0556 10.3368 12.0303 10.3981 11.9851 10.4433C11.9399 10.4885 11.8786 10.5138 11.8148 10.5138H2.18517C2.05217 10.5138 1.94436 10.406 1.94436 10.273V7.62494H0.5L0.500047 10.273Z" fill="white"/>
<path d="M6.27759 0.041748V5.88421L4.11101 3.71762L3.09018 4.73828L6.48953 8.13746C6.62488 8.27281 6.80843 8.34872 6.99986 8.34872C7.19129 8.34872 7.37485 8.27282 7.51019 8.13746L10.9095 4.73828L9.88872 3.71745L7.72213 5.88404V0.0420061L6.27759 0.041748Z" fill="white"/>
</svg>
