<svg width="12" height="12" viewBox="0 0 12 12" fill="none" xmlns="http://www.w3.org/2000/svg">
<path fill-rule="evenodd" clip-rule="evenodd" d="M6.58498 2.04773L9.89638 5.35913L3.2514 11.7642C3.08962 11.9154 2.8766 11.9998 2.65522 12.0005H2.59828e-05V8.92923C-0.00176325 8.70106 0.0889222 8.48191 0.25137 8.32174L6.58498 2.04773Z" fill="#8383D5"/>
<path fill-rule="evenodd" clip-rule="evenodd" d="M12 3.00022C11.9953 3.23009 11.8995 3.44857 11.7337 3.6077L10.5 4.77024L7.18856 1.44389L8.39234 0.24765C8.55309 0.0886901 8.76996 -0.000488281 8.99606 -0.000488281C9.22207 -0.000488281 9.43904 0.0886901 9.59979 0.24765L11.7336 2.38145C11.9015 2.5438 11.9973 2.76662 11.9999 3.00014L12 3.00022Z" fill="#8383D5"/>
</svg>
