<svg width="105" height="20" viewBox="0 0 105 20" fill="none" xmlns="http://www.w3.org/2000/svg">
<path fill-rule="evenodd" clip-rule="evenodd" d="M90.8034 9.50412C91.1589 9.68465 91.514 9.86498 91.8479 10.0848C92.7709 10.6974 93.0782 11.624 92.9124 12.6528C92.7236 13.7051 91.7927 14.7182 89.9941 14.7182C89.3073 14.7182 88.6448 14.5297 88.0375 14.0743C87.3908 13.5952 87.154 13.0691 87.154 12.1188C87.154 12.0953 87.1777 12.0717 87.2014 12.0717H88.5185C88.5422 12.0717 88.5658 12.0953 88.5658 12.1188C88.5658 12.2052 88.5816 12.4016 88.6132 12.5036C88.7948 13.0691 89.3152 13.4303 89.9862 13.4696C90.6013 13.5088 91.2164 13.1711 91.4532 12.6842C91.7137 12.1502 91.5243 11.4748 90.9249 11.1057C90.5581 10.8801 89.7815 10.4753 89.1883 10.1661C88.8113 9.96962 88.5083 9.81172 88.4316 9.7629C86.7041 8.69484 86.9961 5.31012 90.2066 5.31012C90.8302 5.31012 91.4138 5.5143 91.9269 5.89911C92.4631 6.29962 92.7552 6.92787 92.8183 7.68181C92.8262 7.7132 92.8025 7.73678 92.7709 7.73678H91.5559C91.5322 7.73678 91.5085 7.72102 91.5085 7.6975C91.3664 6.60587 90.0335 6.3075 89.2289 6.8415C88.6685 7.21847 88.5579 8.08229 89.0947 8.52205C89.3354 8.71991 89.6177 8.87201 89.8995 9.02377L89.8996 9.02385C89.9868 9.07084 90.074 9.11778 90.1598 9.16605C90.3714 9.28474 90.5875 9.39447 90.8034 9.50412ZM34.0632 5.48294H34.6469H35.4201C35.4437 5.48294 35.4674 5.5065 35.4674 5.53006V14.5927C35.4674 14.6162 35.4437 14.6397 35.4201 14.6397H34.1026C34.079 14.6397 34.0553 14.6162 34.0553 14.5927V7.70538C34.0553 7.65041 33.9764 7.63471 33.9606 7.68968L32.872 11.2629L32.7931 11.5142C32.7852 11.5299 32.7694 11.5456 32.7458 11.5456H31.736C31.7124 11.5456 31.6966 11.5377 31.6887 11.5142L31.6098 11.2629L30.5212 7.68968C30.5054 7.64259 30.4265 7.65041 30.4265 7.70538V14.5927C30.4265 14.6162 30.4028 14.6397 30.3792 14.6397H29.0618C29.0381 14.6397 29.0144 14.6162 29.0144 14.5927V5.53006C29.0144 5.5065 29.0381 5.48294 29.0618 5.48294H29.8506H30.4344H31.0734C31.097 5.48294 31.1128 5.49079 31.1207 5.51435L32.2015 9.06398C32.2173 9.11114 32.2804 9.11114 32.2961 9.06398L33.3768 5.51435C33.3847 5.49864 33.4005 5.48294 33.4242 5.48294H34.0632ZM71.6762 5.48294C71.6525 5.48294 71.6367 5.49864 71.6288 5.51435L70.5486 9.06398C70.5328 9.11114 70.4696 9.11114 70.4538 9.06398L69.373 5.51435C69.3651 5.49079 69.3493 5.48294 69.3256 5.48294H67.3217C67.298 5.48294 67.2744 5.5065 67.2744 5.53006V14.5927C67.2744 14.6162 67.298 14.6397 67.3217 14.6397H68.6394C68.6631 14.6397 68.6868 14.6162 68.6868 14.5927V7.70538C68.6868 7.65041 68.7657 7.64259 68.7815 7.68968L69.8697 11.2629L69.9486 11.5142C69.9565 11.5377 69.9723 11.5456 69.996 11.5456H71.0058C71.0295 11.5456 71.0453 11.5299 71.0532 11.5142L71.1321 11.2629L72.2209 7.68968C72.2367 7.63471 72.3156 7.65041 72.3156 7.70538V14.5927C72.3156 14.6162 72.3393 14.6397 72.363 14.6397H73.6801C73.7038 14.6397 73.7274 14.6162 73.7274 14.5927V5.53006C73.7274 5.5065 73.7038 5.48294 73.6801 5.48294H71.6762ZM52.2307 5.48294H54.6841C54.7157 5.48294 54.7314 5.5065 54.7314 5.53006V6.66089C54.7314 6.68447 54.7078 6.70804 54.6841 6.70804H52.2781V14.5927C52.2781 14.6162 52.2544 14.6397 52.2307 14.6397H50.9133C50.8896 14.6397 50.866 14.6162 50.866 14.5927V6.70804H48.46C48.4363 6.70804 48.4126 6.68447 48.4126 6.66089V5.53006C48.4126 5.5065 48.4363 5.48294 48.46 5.48294H50.9133H52.2307ZM62.4547 14.6396H63.6534C63.685 14.6396 63.7087 14.6082 63.7008 14.5768L61.2239 5.48284C61.216 5.45928 61.2002 5.45143 61.1765 5.45143H60.7191H59.9144H59.4569C59.4332 5.45143 59.4174 5.46713 59.4095 5.48284L56.9325 14.5768C56.9246 14.6082 56.9483 14.6396 56.9798 14.6396H58.1789C58.2026 14.6396 58.2184 14.6239 58.2263 14.6082L58.9441 11.9617C58.952 11.9382 58.9677 11.9303 58.9914 11.9303H61.6423C61.6659 11.9303 61.6817 11.946 61.6896 11.9617L62.4074 14.6082C62.4153 14.6239 62.4389 14.6396 62.4547 14.6396ZM59.3069 10.6345L60.2694 7.09272C60.2851 7.04563 60.3483 7.04563 60.3641 7.09272L61.3265 10.6345C61.3344 10.6659 61.3107 10.6973 61.2791 10.6973H59.3543C59.3227 10.6973 59.2991 10.6659 59.3069 10.6345ZM84.1008 14.6396H82.9022C82.8785 14.6396 82.8627 14.6239 82.8548 14.6082L82.137 11.9617C82.1292 11.946 82.1134 11.9303 82.0897 11.9303H79.4391C79.4154 11.9303 79.3996 11.9382 79.3917 11.9617L78.674 14.6082C78.6661 14.6239 78.6503 14.6396 78.6266 14.6396H77.4273C77.3958 14.6396 77.3721 14.6082 77.38 14.5768L79.8569 5.48284C79.8648 5.46713 79.8806 5.45143 79.9042 5.45143H80.3621H81.1667H81.6239C81.6476 5.45143 81.6634 5.45928 81.6713 5.48284L84.1482 14.5768C84.1561 14.6082 84.1324 14.6396 84.1008 14.6396ZM80.7167 7.09272L79.7542 10.6345C79.7464 10.6659 79.77 10.6973 79.8016 10.6973H81.7266C81.7581 10.6973 81.7818 10.6659 81.7739 10.6345L80.8114 7.09272C80.7957 7.04563 80.7325 7.04563 80.7167 7.09272ZM40.8159 13.2968V10.4854C40.8159 10.4619 40.8396 10.4383 40.8633 10.4383H44.3737C44.3974 10.4383 44.4211 10.4147 44.4211 10.3911V9.26029C44.4211 9.23678 44.3974 9.2132 44.3737 9.2132H40.8633C40.8396 9.2132 40.8159 9.18963 40.8159 9.16605V6.76302C40.8159 6.73944 40.8396 6.71587 40.8633 6.71587H44.8549C44.8786 6.71587 44.9023 6.69229 44.9023 6.66878V5.53791C44.9023 5.51435 44.8786 5.49078 44.8549 5.49078H40.8159H39.4512C39.4275 5.49078 39.4039 5.51435 39.4039 5.53791V6.71587V9.22102V10.4462V13.3518V14.5926C39.4039 14.6162 39.4275 14.6397 39.4512 14.6397H40.8159H45.0206C45.0443 14.6397 45.068 14.6162 45.068 14.5926V13.399C45.068 13.3754 45.0443 13.3518 45.0206 13.3518H40.8554C40.8317 13.344 40.8159 13.3282 40.8159 13.2968ZM99.326 9.87284L103.886 14.5612C103.917 14.5848 103.894 14.6398 103.862 14.6476H102.182C102.174 14.6476 102.158 14.6398 102.15 14.6319L98.2063 10.5796C98.1826 10.5482 98.1274 10.5718 98.1274 10.6111V14.6005C98.1274 14.6241 98.1037 14.6476 98.08 14.6476H96.7623C96.7386 14.6476 96.7149 14.6241 96.7149 14.6005V5.53791C96.7149 5.51435 96.7386 5.49078 96.7623 5.49078H98.08C98.1037 5.49078 98.1274 5.51435 98.1274 5.53791V9.07181C98.1274 9.11108 98.1747 9.13466 98.2063 9.10326L101.685 5.50649C101.693 5.49864 101.701 5.49078 101.717 5.49078H103.397C103.436 5.49078 103.46 5.53791 103.429 5.56932L99.326 9.81005C99.3103 9.82575 99.3103 9.85714 99.326 9.87284Z" fill="#333333"/>
<path d="M20.0134 0.606049L12.038 6.49593L13.5211 3.02483L20.0134 0.606049Z" fill="#E17726" stroke="#E17726" stroke-width="0.25" stroke-linecap="round" stroke-linejoin="round"/>
<path d="M1.617 0.606049L9.52148 6.5509L8.10942 3.02482L1.617 0.606049Z" fill="#E27625" stroke="#E27625" stroke-width="0.25" stroke-linecap="round" stroke-linejoin="round"/>
<path d="M17.1418 14.2626L15.0197 17.4981L19.5636 18.7468L20.8653 14.3334L17.1418 14.2626Z" fill="#E27625" stroke="#E27625" stroke-width="0.25" stroke-linecap="round" stroke-linejoin="round"/>
<path d="M0.772827 14.3334L2.06657 18.7468L6.60258 17.4981L4.4884 14.2626L0.772827 14.3334Z" fill="#E27625" stroke="#E27625" stroke-width="0.25" stroke-linecap="round" stroke-linejoin="round"/>
<path d="M6.35799 8.7969L5.09583 10.6974L9.59237 10.9016L9.4425 6.07187L6.35799 8.7969Z" fill="#E27625" stroke="#E27625" stroke-width="0.25" stroke-linecap="round" stroke-linejoin="round"/>
<path d="M15.2722 8.79695L12.1404 6.01694L12.0378 10.9016L16.5344 10.6974L15.2722 8.79695Z" fill="#E27625" stroke="#E27625" stroke-width="0.25" stroke-linecap="round" stroke-linejoin="round"/>
<path d="M6.60266 17.4982L9.32423 16.1867L6.98133 14.3648L6.60266 17.4982Z" fill="#E27625" stroke="#E27625" stroke-width="0.25" stroke-linecap="round" stroke-linejoin="round"/>
<path d="M12.3062 16.1867L15.0198 17.4982L14.649 14.3648L12.3062 16.1867Z" fill="#E27625" stroke="#E27625" stroke-width="0.25" stroke-linecap="round" stroke-linejoin="round"/>
<path d="M15.0198 17.4983L12.3062 16.1868L12.527 17.9459L12.5033 18.692L15.0198 17.4983Z" fill="#D5BFB2" stroke="#D5BFB2" stroke-width="0.25" stroke-linecap="round" stroke-linejoin="round"/>
<path d="M6.60266 17.4983L9.12706 18.692L9.11127 17.9459L9.32423 16.1868L6.60266 17.4983Z" fill="#D5BFB2" stroke="#D5BFB2" stroke-width="0.25" stroke-linecap="round" stroke-linejoin="round"/>
<path d="M9.17433 13.2025L6.91815 12.5429L8.51166 11.8125L9.17433 13.2025Z" fill="#233447" stroke="#233447" stroke-width="0.25" stroke-linecap="round" stroke-linejoin="round"/>
<path d="M12.4561 13.2025L13.1187 11.8125L14.7201 12.5429L12.4561 13.2025Z" fill="#233447" stroke="#233447" stroke-width="0.25" stroke-linecap="round" stroke-linejoin="round"/>
<path d="M6.60261 17.4982L6.99707 14.2626L4.48846 14.3334L6.60261 17.4982Z" fill="#CC6228" stroke="#CC6228" stroke-width="0.25" stroke-linecap="round" stroke-linejoin="round"/>
<path d="M14.6332 14.2626L15.0197 17.4982L17.1418 14.3334L14.6332 14.2626Z" fill="#CC6228" stroke="#CC6228" stroke-width="0.25" stroke-linecap="round" stroke-linejoin="round"/>
<path d="M16.5344 10.6973L12.0378 10.9015L12.4559 13.2025L13.1186 11.8125L14.72 12.5428L16.5344 10.6973Z" fill="#CC6228" stroke="#CC6228" stroke-width="0.25" stroke-linecap="round" stroke-linejoin="round"/>
<path d="M6.91811 12.5428L8.51161 11.8125L9.17429 13.2025L9.59237 10.9015L5.09583 10.6973L6.91811 12.5428Z" fill="#CC6228" stroke="#CC6228" stroke-width="0.25" stroke-linecap="round" stroke-linejoin="round"/>
<path d="M5.09595 10.6973L6.98136 14.3648L6.91821 12.5428L5.09595 10.6973Z" fill="#E27525" stroke="#E27525" stroke-width="0.25" stroke-linecap="round" stroke-linejoin="round"/>
<path d="M14.7202 12.5428L14.6492 14.3648L16.5346 10.6973L14.7202 12.5428Z" fill="#E27525" stroke="#E27525" stroke-width="0.25" stroke-linecap="round" stroke-linejoin="round"/>
<path d="M9.59258 10.9015L9.17444 13.2025L9.70298 15.9197L9.82133 12.3386L9.59258 10.9015Z" fill="#E27525" stroke="#E27525" stroke-width="0.25" stroke-linecap="round" stroke-linejoin="round"/>
<path d="M12.0379 10.9015L11.817 12.3308L11.9275 15.9197L12.456 13.2025L12.0379 10.9015Z" fill="#E27525" stroke="#E27525" stroke-width="0.25" stroke-linecap="round" stroke-linejoin="round"/>
<path d="M12.456 13.2026L11.9275 15.9198L12.3062 16.1868L14.6491 14.3648L14.7201 12.5429L12.456 13.2026Z" fill="#F5841F" stroke="#F5841F" stroke-width="0.25" stroke-linecap="round" stroke-linejoin="round"/>
<path d="M6.91815 12.5429L6.9813 14.3648L9.3242 16.1868L9.70287 15.9198L9.17433 13.2026L6.91815 12.5429Z" fill="#F5841F" stroke="#F5841F" stroke-width="0.25" stroke-linecap="round" stroke-linejoin="round"/>
<path d="M12.5034 18.6919L12.527 17.9459L12.322 17.7731H9.3085L9.11127 17.9459L9.12706 18.6919L6.60266 17.4982L7.48619 18.2207L9.27692 19.4537H12.3456L14.1442 18.2207L15.0199 17.4982L12.5034 18.6919Z" fill="#C0AC9D" stroke="#C0AC9D" stroke-width="0.25" stroke-linecap="round" stroke-linejoin="round"/>
<path d="M12.3061 16.1867L11.9274 15.9197H9.70283L9.32422 16.1867L9.11121 17.9459L9.30844 17.7731H12.3219L12.527 17.9459L12.3061 16.1867Z" fill="#161616" stroke="#161616" stroke-width="0.25" stroke-linecap="round" stroke-linejoin="round"/>
<path d="M20.3526 6.88071L21.0231 3.62952L20.0134 0.606049L12.3062 6.29962L15.2723 8.7969L19.4611 10.0142L20.3841 8.93829L19.9818 8.64768L20.6208 8.06659L20.1317 7.68962L20.7707 7.20271L20.3526 6.88071Z" fill="#763E1A" stroke="#763E1A" stroke-width="0.25" stroke-linecap="round" stroke-linejoin="round"/>
<path d="M0.607239 3.62952L1.28567 6.88071L0.851791 7.20271L1.49866 7.68962L1.00956 8.06659L1.64854 8.64768L1.24622 8.93829L2.1692 10.0142L6.35812 8.7969L9.32422 6.29962L1.61699 0.606049L0.607239 3.62952Z" fill="#763E1A" stroke="#763E1A" stroke-width="0.25" stroke-linecap="round" stroke-linejoin="round"/>
<path d="M19.4613 10.0141L15.2724 8.79688L16.5346 10.6974L14.6492 14.3648L17.142 14.3334H20.8654L19.4613 10.0141Z" fill="#F5841F" stroke="#F5841F" stroke-width="0.25" stroke-linecap="round" stroke-linejoin="round"/>
<path d="M6.35799 8.79688L2.16912 10.0141L0.772827 14.3334H4.4884L6.98119 14.3648L5.09582 10.6974L6.35799 8.79688Z" fill="#F5841F" stroke="#F5841F" stroke-width="0.25" stroke-linecap="round" stroke-linejoin="round"/>
<path d="M12.0379 10.9016L12.3061 6.29956L13.5209 3.02481H8.10931L9.32415 6.29956L9.59236 10.9016L9.69493 12.3465L9.70282 15.9197H11.9274L11.9353 12.3465L12.0379 10.9016Z" fill="#F5841F" stroke="#F5841F" stroke-width="0.25" stroke-linecap="round" stroke-linejoin="round"/>
</svg>
