<svg width="172" height="84" viewBox="0 0 172 84" fill="none" xmlns="http://www.w3.org/2000/svg">
<path d="M0.288 42L12.96 9.072H21.792L34.464 42H26.736L24.384 35.52H10.032L7.68 42H0.288ZM12.096 29.76H22.32L19.392 21.648C19.264 21.296 19.104 20.88 18.912 20.4C18.752 19.888 18.576 19.328 18.384 18.72C18.192 18.112 18 17.52 17.808 16.944C17.648 16.336 17.488 15.792 17.328 15.312H17.04C16.88 15.92 16.672 16.64 16.416 17.472C16.16 18.272 15.904 19.056 15.648 19.824C15.392 20.56 15.184 21.168 15.024 21.648L12.096 29.76ZM37.8064 42V16.752H43.3264L43.8544 20.688H44.1904C44.5104 19.856 44.9264 19.104 45.4384 18.432C45.9504 17.728 46.5904 17.168 47.3584 16.752C48.1264 16.336 49.0224 16.128 50.0464 16.128C50.5904 16.128 51.0864 16.192 51.5344 16.32C51.9824 16.416 52.3184 16.512 52.5424 16.608V22.656H50.4784C49.4864 22.656 48.6064 22.8 47.8384 23.088C47.1024 23.344 46.4784 23.76 45.9664 24.336C45.4544 24.912 45.0704 25.616 44.8144 26.448C44.5904 27.28 44.4784 28.256 44.4784 29.376V42H37.8064ZM69.4328 42.576C67.5128 42.576 65.6888 42.384 63.9608 42C62.2328 41.616 60.6968 41.008 59.3528 40.176C58.0408 39.312 57.0008 38.24 56.2328 36.96C55.4968 35.648 55.1288 34.064 55.1288 32.208C55.1288 32.048 55.1288 31.888 55.1288 31.728C55.1288 31.536 55.1448 31.392 55.1768 31.296H62.2808C62.2488 31.392 62.2328 31.52 62.2328 31.68C62.2328 31.84 62.2328 31.984 62.2328 32.112C62.2328 33.136 62.5048 34 63.0488 34.704C63.6248 35.408 64.4568 35.936 65.5448 36.288C66.6328 36.64 67.8968 36.816 69.3368 36.816C70.2648 36.816 71.0808 36.768 71.7848 36.672C72.5208 36.544 73.1608 36.384 73.7048 36.192C74.2808 35.968 74.7448 35.712 75.0968 35.424C75.4808 35.136 75.7528 34.8 75.9128 34.416C76.1048 34.032 76.2008 33.6 76.2008 33.12C76.2008 32.256 75.9128 31.552 75.3368 31.008C74.7928 30.464 74.0248 30 73.0328 29.616C72.0728 29.232 70.9848 28.88 69.7688 28.56C68.5528 28.24 67.3048 27.92 66.0248 27.6C64.7448 27.248 63.4968 26.832 62.2808 26.352C61.0648 25.84 59.9768 25.232 59.0168 24.528C58.0568 23.824 57.2888 22.928 56.7128 21.84C56.1368 20.752 55.8488 19.44 55.8488 17.904C55.8488 16.272 56.1848 14.864 56.8568 13.68C57.5608 12.496 58.5368 11.52 59.7848 10.752C61.0328 9.984 62.4728 9.424 64.1048 9.072C65.7368 8.688 67.5128 8.496 69.4328 8.496C71.2248 8.496 72.9208 8.688 74.5208 9.072C76.1208 9.424 77.5288 10 78.7448 10.8C79.9608 11.6 80.9048 12.608 81.5768 13.824C82.2808 15.04 82.6328 16.48 82.6328 18.144V18.72H75.6728V18.336C75.6728 17.472 75.4168 16.736 74.9048 16.128C74.3928 15.52 73.6728 15.04 72.7448 14.688C71.8168 14.336 70.7288 14.16 69.4808 14.16C68.1368 14.16 66.9848 14.288 66.0248 14.544C65.0968 14.8 64.3768 15.184 63.8648 15.696C63.3848 16.176 63.1448 16.752 63.1448 17.424C63.1448 18.192 63.4168 18.832 63.9608 19.344C64.5368 19.824 65.3048 20.256 66.2648 20.64C67.2568 20.992 68.3608 21.312 69.5768 21.6C70.7928 21.888 72.0408 22.208 73.3208 22.56C74.6008 22.912 75.8488 23.328 77.0648 23.808C78.2808 24.288 79.3688 24.896 80.3288 25.632C81.2888 26.336 82.0568 27.216 82.6328 28.272C83.2088 29.328 83.4968 30.592 83.4968 32.064C83.4968 34.592 82.8888 36.624 81.6728 38.16C80.4568 39.696 78.7928 40.816 76.6808 41.52C74.5688 42.224 72.1528 42.576 69.4328 42.576ZM88.6189 42V16.752H94.1389L94.6669 20.208H95.0029C95.5789 19.376 96.2669 18.656 97.0669 18.048C97.8989 17.44 98.8269 16.976 99.8509 16.656C100.875 16.336 101.995 16.176 103.211 16.176C104.875 16.176 106.331 16.48 107.579 17.088C108.827 17.696 109.787 18.656 110.459 19.968C111.163 21.28 111.515 22.992 111.515 25.104V42H104.843V26.16C104.843 25.36 104.747 24.688 104.555 24.144C104.363 23.568 104.075 23.104 103.691 22.752C103.339 22.368 102.891 22.096 102.347 21.936C101.803 21.776 101.195 21.696 100.523 21.696C99.5309 21.696 98.6349 21.936 97.8349 22.416C97.0349 22.896 96.4109 23.552 95.9629 24.384C95.5149 25.216 95.2909 26.176 95.2909 27.264V42H88.6189ZM124.166 42.576C123.334 42.576 122.438 42.48 121.478 42.288C120.55 42.096 119.67 41.76 118.838 41.28C118.006 40.768 117.318 40.048 116.774 39.12C116.262 38.16 116.006 36.944 116.006 35.472C116.006 33.712 116.39 32.256 117.158 31.104C117.926 29.952 119.014 29.056 120.422 28.416C121.862 27.744 123.574 27.28 125.558 27.024C127.542 26.768 129.734 26.64 132.134 26.64V24.768C132.134 24.032 132.006 23.392 131.75 22.848C131.526 22.304 131.11 21.872 130.502 21.552C129.926 21.232 129.11 21.072 128.054 21.072C126.998 21.072 126.134 21.2 125.462 21.456C124.822 21.712 124.358 22.048 124.07 22.464C123.814 22.848 123.686 23.28 123.686 23.76V24.336H117.206C117.174 24.176 117.158 24.032 117.158 23.904C117.158 23.744 117.158 23.552 117.158 23.328C117.158 21.856 117.606 20.592 118.502 19.536C119.398 18.448 120.662 17.616 122.294 17.04C123.926 16.464 125.83 16.176 128.006 16.176C130.342 16.176 132.294 16.48 133.862 17.088C135.462 17.696 136.678 18.592 137.51 19.776C138.374 20.96 138.806 22.448 138.806 24.24V35.712C138.806 36.288 138.966 36.72 139.286 37.008C139.638 37.264 140.022 37.392 140.438 37.392H142.022V41.76C141.702 41.92 141.206 42.08 140.534 42.24C139.862 42.432 139.046 42.528 138.086 42.528C137.158 42.528 136.326 42.384 135.59 42.096C134.886 41.84 134.294 41.472 133.814 40.992C133.334 40.48 132.998 39.872 132.806 39.168H132.47C131.926 39.84 131.254 40.432 130.454 40.944C129.686 41.456 128.774 41.856 127.718 42.144C126.694 42.432 125.51 42.576 124.166 42.576ZM126.422 37.536C127.318 37.536 128.118 37.408 128.822 37.152C129.526 36.864 130.118 36.496 130.598 36.048C131.078 35.568 131.446 34.992 131.702 34.32C131.99 33.648 132.134 32.928 132.134 32.16V30.768C130.342 30.768 128.742 30.896 127.334 31.152C125.926 31.376 124.806 31.776 123.974 32.352C123.174 32.928 122.774 33.728 122.774 34.752C122.774 35.328 122.918 35.824 123.206 36.24C123.494 36.656 123.91 36.976 124.454 37.2C124.998 37.424 125.654 37.536 126.422 37.536ZM145.338 50.544V16.752H150.81L151.386 20.16H151.722C152.554 18.784 153.642 17.776 154.986 17.136C156.33 16.496 157.818 16.176 159.45 16.176C161.562 16.176 163.37 16.64 164.874 17.568C166.41 18.496 167.578 19.936 168.378 21.888C169.21 23.84 169.626 26.352 169.626 29.424C169.626 32.4 169.21 34.864 168.378 36.816C167.546 38.768 166.378 40.224 164.874 41.184C163.402 42.112 161.674 42.576 159.69 42.576C158.602 42.576 157.594 42.448 156.666 42.192C155.738 41.968 154.906 41.6 154.17 41.088C153.434 40.576 152.81 39.952 152.298 39.216H152.01V50.544H145.338ZM157.386 37.104C158.73 37.104 159.786 36.848 160.554 36.336C161.354 35.792 161.93 34.992 162.282 33.936C162.634 32.848 162.81 31.52 162.81 29.952V28.848C162.81 27.248 162.634 25.92 162.282 24.864C161.93 23.776 161.354 22.976 160.554 22.464C159.786 21.92 158.73 21.648 157.386 21.648C156.138 21.648 155.114 21.936 154.314 22.512C153.514 23.088 152.922 23.92 152.538 25.008C152.154 26.096 151.962 27.408 151.962 28.944V29.76C151.962 30.88 152.074 31.904 152.298 32.832C152.522 33.728 152.842 34.496 153.258 35.136C153.706 35.776 154.266 36.272 154.938 36.624C155.61 36.944 156.426 37.104 157.386 37.104Z" fill="white"/>
<path d="M11.3946 77.5V70.268H10.1466V69.084H11.3946V67.74C11.3946 67.4093 11.4426 67.1 11.5386 66.812C11.6346 66.5133 11.8159 66.2733 12.0826 66.092C12.3492 65.9 12.7226 65.804 13.2026 65.804C13.3519 65.804 13.4959 65.8147 13.6346 65.836C13.7839 65.8467 13.9226 65.868 14.0506 65.9C14.1892 65.9213 14.3119 65.948 14.4186 65.98V66.988H13.5706C13.3039 66.988 13.1066 67.0573 12.9786 67.196C12.8612 67.324 12.8026 67.5107 12.8026 67.756V69.084H14.4186V70.268H12.8026V77.5H11.3946ZM18.9208 77.692C18.0675 77.692 17.3475 77.5373 16.7608 77.228C16.1848 76.908 15.7421 76.4227 15.4328 75.772C15.1341 75.1213 14.9848 74.2947 14.9848 73.292C14.9848 72.2787 15.1341 71.452 15.4328 70.812C15.7421 70.1613 16.1848 69.6813 16.7608 69.372C17.3475 69.052 18.0675 68.892 18.9208 68.892C19.7741 68.892 20.4888 69.052 21.0648 69.372C21.6515 69.6813 22.0941 70.1613 22.3928 70.812C22.6915 71.452 22.8408 72.2787 22.8408 73.292C22.8408 74.2947 22.6915 75.1213 22.3928 75.772C22.0941 76.4227 21.6515 76.908 21.0648 77.228C20.4888 77.5373 19.7741 77.692 18.9208 77.692ZM18.9208 76.508C19.4648 76.508 19.9181 76.4013 20.2808 76.188C20.6435 75.9747 20.9155 75.644 21.0968 75.196C21.2888 74.7373 21.3848 74.1613 21.3848 73.468V73.116C21.3848 72.412 21.2888 71.836 21.0968 71.388C20.9155 70.94 20.6435 70.6093 20.2808 70.396C19.9181 70.1827 19.4648 70.076 18.9208 70.076C18.3768 70.076 17.9181 70.1827 17.5448 70.396C17.1821 70.6093 16.9101 70.94 16.7288 71.388C16.5475 71.836 16.4568 72.412 16.4568 73.116V73.468C16.4568 74.1613 16.5475 74.7373 16.7288 75.196C16.9101 75.644 17.1821 75.9747 17.5448 76.188C17.9181 76.4013 18.3768 76.508 18.9208 76.508ZM24.5898 77.5V69.084H25.7258L25.8538 70.476H25.9658C26.0511 70.2093 26.1685 69.9587 26.3178 69.724C26.4671 69.4787 26.6698 69.2813 26.9258 69.132C27.1818 68.972 27.4965 68.892 27.8698 68.892C28.0298 68.892 28.1738 68.908 28.3018 68.94C28.4405 68.9613 28.5418 68.988 28.6058 69.02V70.316H28.0778C27.7151 70.316 27.4005 70.38 27.1338 70.508C26.8778 70.6253 26.6645 70.796 26.4938 71.02C26.3231 71.244 26.1951 71.5107 26.1098 71.82C26.0351 72.1293 25.9978 72.46 25.9978 72.812V77.5H24.5898Z" fill="white"/>
<path fill-rule="evenodd" clip-rule="evenodd" d="M145.708 71.405C146.134 71.6216 146.559 71.838 146.959 72.1018C148.064 72.8369 148.432 73.9489 148.234 75.1834C148.008 76.4462 146.893 77.6619 144.739 77.6619C143.916 77.6619 143.123 77.4357 142.395 76.8892C141.621 76.3143 141.337 75.6829 141.337 74.5426C141.337 74.5143 141.365 74.486 141.394 74.486H142.971C143 74.486 143.028 74.5143 143.028 74.5426C143.028 74.6463 143.047 74.8819 143.085 75.0044C143.302 75.6829 143.925 76.1164 144.729 76.1635C145.466 76.2106 146.203 75.8054 146.486 75.2211C146.798 74.5803 146.571 73.7698 145.853 73.3269C145.414 73.0561 144.484 72.5704 143.773 72.1993L143.773 72.1993L143.773 72.1991C143.322 71.9634 142.959 71.7741 142.867 71.7155C140.798 70.4338 141.148 66.3722 144.993 66.3722C145.74 66.3722 146.439 66.6172 147.053 67.0789C147.696 67.5596 148.045 68.3135 148.121 69.2182C148.131 69.2559 148.102 69.2841 148.064 69.2841H146.609C146.581 69.2841 146.552 69.2652 146.552 69.237C146.382 67.9271 144.786 67.569 143.822 68.2098C143.151 68.6622 143.019 69.6988 143.661 70.2265C143.95 70.4639 144.288 70.6464 144.625 70.8285L144.626 70.8288L144.626 70.8289L144.626 70.829L144.626 70.829L144.626 70.829C144.73 70.8853 144.835 70.9415 144.937 70.9993C145.19 71.1417 145.449 71.2733 145.708 71.4049L145.708 71.405ZM77.7513 66.5795H78.4505H79.3764C79.4047 66.5795 79.4331 66.6078 79.4331 66.6361V77.5112C79.4331 77.5394 79.4047 77.5677 79.3764 77.5677H77.7985C77.7702 77.5677 77.7419 77.5394 77.7419 77.5112V69.2465C77.7419 69.1805 77.6474 69.1617 77.6285 69.2276L76.3246 73.5155L76.2302 73.817C76.2207 73.8359 76.2018 73.8548 76.1735 73.8548H74.9641C74.9358 73.8548 74.9169 73.8453 74.9074 73.817L74.8129 73.5155L73.5091 69.2276C73.4902 69.1711 73.3958 69.1805 73.3958 69.2465V77.5112C73.3958 77.5394 73.3674 77.5677 73.339 77.5677H71.7612C71.7329 77.5677 71.7045 77.5394 71.7045 77.5112V66.6361C71.7045 66.6078 71.7329 66.5795 71.7612 66.5795H72.706H73.4052H74.1705C74.1988 66.5795 74.2177 66.589 74.2272 66.6172L75.5216 70.8768C75.5405 70.9334 75.6161 70.9334 75.635 70.8768L76.9293 66.6172C76.9387 66.5984 76.9577 66.5795 76.986 66.5795H77.7513ZM122.8 66.5795C122.771 66.5795 122.752 66.5984 122.743 66.6172L121.449 70.8768C121.43 70.9334 121.355 70.9334 121.336 70.8768L120.041 66.6172C120.032 66.589 120.013 66.5795 119.984 66.5795H117.584C117.556 66.5795 117.528 66.6078 117.528 66.6361V77.5112C117.528 77.5394 117.556 77.5677 117.584 77.5677H119.163C119.191 77.5677 119.219 77.5394 119.219 77.5112V69.2465C119.219 69.1805 119.314 69.1711 119.333 69.2276L120.636 73.5155L120.731 73.817C120.74 73.8453 120.759 73.8548 120.787 73.8548H121.997C122.025 73.8548 122.044 73.8359 122.053 73.817L122.148 73.5155L123.452 69.2276C123.471 69.1617 123.565 69.1805 123.565 69.2465V77.5112C123.565 77.5394 123.594 77.5677 123.622 77.5677H125.2C125.228 77.5677 125.256 77.5394 125.256 77.5112V66.6361C125.256 66.6078 125.228 66.5795 125.2 66.5795H122.8ZM99.5102 66.5795H102.449C102.486 66.5795 102.505 66.6078 102.505 66.6361V67.9931C102.505 68.0214 102.477 68.0497 102.449 68.0497H99.5669V77.5112C99.5669 77.5394 99.5385 77.5677 99.5102 77.5677H97.9324C97.904 77.5677 97.8757 77.5394 97.8757 77.5112V68.0497H94.994C94.9657 68.0497 94.9373 68.0214 94.9373 67.9931V66.6361C94.9373 66.6078 94.9657 66.5795 94.994 66.5795H97.9324H99.5102ZM111.755 77.5676H113.191C113.229 77.5676 113.257 77.5299 113.248 77.4922L110.281 66.5794C110.272 66.5512 110.253 66.5417 110.224 66.5417H109.677H108.713H108.165C108.136 66.5417 108.118 66.5606 108.108 66.5794L105.141 77.4922C105.132 77.5299 105.16 77.5676 105.198 77.5676H106.634C106.663 77.5676 106.681 77.5487 106.691 77.5299L107.551 74.354C107.56 74.3258 107.579 74.3164 107.607 74.3164H110.782C110.811 74.3164 110.829 74.3352 110.839 74.354L111.699 77.5299C111.708 77.5487 111.736 77.5676 111.755 77.5676ZM107.985 72.7615L109.138 68.5113C109.157 68.4548 109.232 68.4548 109.251 68.5113L110.404 72.7615C110.413 72.7991 110.385 72.8368 110.347 72.8368H108.042C108.004 72.8368 107.976 72.7991 107.985 72.7615ZM137.68 77.5676H136.245C136.216 77.5676 136.197 77.5487 136.188 77.5299L135.328 74.354C135.319 74.3352 135.3 74.3164 135.272 74.3164H132.097C132.069 74.3164 132.05 74.3258 132.04 74.354L131.181 77.5299C131.171 77.5487 131.152 77.5676 131.124 77.5676H129.688C129.65 77.5676 129.621 77.5299 129.631 77.4922L132.597 66.5794C132.607 66.5606 132.626 66.5417 132.654 66.5417H133.203H134.166H134.714C134.742 66.5417 134.761 66.5512 134.771 66.5794L137.737 77.4922C137.747 77.5299 137.718 77.5676 137.68 77.5676ZM133.627 68.5113L132.475 72.7615C132.465 72.7991 132.493 72.8368 132.531 72.8368H134.837C134.875 72.8368 134.903 72.7991 134.893 72.7615L133.741 68.5113C133.722 68.4548 133.646 68.4548 133.627 68.5113ZM85.8389 75.9562V72.5825C85.8389 72.5543 85.8673 72.526 85.8956 72.526H90.1C90.1284 72.526 90.1567 72.4977 90.1567 72.4694V71.1124C90.1567 71.0842 90.1284 71.0559 90.1 71.0559H85.8956C85.8673 71.0559 85.8389 71.0276 85.8389 70.9993V68.1156C85.8389 68.0874 85.8673 68.0591 85.8956 68.0591H90.6764C90.7047 68.0591 90.7331 68.0308 90.7331 68.0026V66.6455C90.7331 66.6172 90.7047 66.589 90.6764 66.589H85.8389H84.2044C84.1761 66.589 84.1477 66.6172 84.1477 66.6455V68.0591V71.0652V72.5354V76.0222V77.5111C84.1477 77.5394 84.1761 77.5677 84.2044 77.5677H85.8389H90.8748C90.9031 77.5677 90.9315 77.5394 90.9315 77.5111V76.0788C90.9315 76.0505 90.9031 76.0222 90.8748 76.0222H85.8862C85.8578 76.0128 85.8389 75.9939 85.8389 75.9562ZM155.915 71.8474L161.376 77.4735C161.414 77.5018 161.386 77.5677 161.348 77.5772H159.336C159.326 77.5772 159.307 77.5677 159.298 77.5583L154.574 72.6956C154.546 72.6579 154.48 72.6862 154.48 72.7333V77.5206C154.48 77.5489 154.451 77.5772 154.423 77.5772H152.845C152.816 77.5772 152.788 77.5489 152.788 77.5206V66.6455C152.788 66.6172 152.816 66.589 152.845 66.589H154.423C154.451 66.589 154.48 66.6172 154.48 66.6455V70.8862C154.48 70.9333 154.536 70.9616 154.574 70.9239L158.741 66.6078V66.6078C158.75 66.5984 158.76 66.589 158.779 66.589H160.791C160.838 66.589 160.867 66.6455 160.829 66.6832L155.915 71.7721C155.896 71.7909 155.896 71.8286 155.915 71.8474Z" fill="white"/>
<path d="M60.9242 60.7273L51.3722 67.7951L53.1485 63.6298L60.9242 60.7273Z" fill="#E17726" stroke="#E17726" stroke-width="0.25" stroke-linecap="round" stroke-linejoin="round"/>
<path d="M38.8912 60.7273L48.3582 67.8611L46.667 63.6298L38.8912 60.7273Z" fill="#E27625" stroke="#E27625" stroke-width="0.25" stroke-linecap="round" stroke-linejoin="round"/>
<path d="M57.4849 77.1152L54.9434 80.9978L60.3855 82.4962L61.9444 77.2L57.4849 77.1152Z" fill="#E27625" stroke="#E27625" stroke-width="0.25" stroke-linecap="round" stroke-linejoin="round"/>
<path d="M37.8802 77.2L39.4296 82.4962L44.8623 80.9978L42.3302 77.1152L37.8802 77.2Z" fill="#E27625" stroke="#E27625" stroke-width="0.25" stroke-linecap="round" stroke-linejoin="round"/>
<path d="M44.5694 70.5563L43.0577 72.8369L48.4431 73.0819L48.2636 67.2863L44.5694 70.5563Z" fill="#E27625" stroke="#E27625" stroke-width="0.25" stroke-linecap="round" stroke-linejoin="round"/>
<path d="M55.2457 70.5564L51.4948 67.2203L51.372 73.082L56.7574 72.8369L55.2457 70.5564Z" fill="#E27625" stroke="#E27625" stroke-width="0.25" stroke-linecap="round" stroke-linejoin="round"/>
<path d="M44.8624 80.9978L48.122 79.4241L45.3159 77.2377L44.8624 80.9978Z" fill="#E27625" stroke="#E27625" stroke-width="0.25" stroke-linecap="round" stroke-linejoin="round"/>
<path d="M51.6934 79.4241L54.9435 80.9978L54.4994 77.2377L51.6934 79.4241Z" fill="#E27625" stroke="#E27625" stroke-width="0.25" stroke-linecap="round" stroke-linejoin="round"/>
<path d="M54.9435 80.998L51.6934 79.4242L51.9579 81.5351L51.9295 82.4304L54.9435 80.998Z" fill="#D5BFB2" stroke="#D5BFB2" stroke-width="0.25" stroke-linecap="round" stroke-linejoin="round"/>
<path d="M44.8624 80.998L47.8858 82.4304L47.8669 81.5351L48.122 79.4242L44.8624 80.998Z" fill="#D5BFB2" stroke="#D5BFB2" stroke-width="0.25" stroke-linecap="round" stroke-linejoin="round"/>
<path d="M47.9424 75.8431L45.2402 75.0515L47.1488 74.175L47.9424 75.8431Z" fill="#233447" stroke="#233447" stroke-width="0.25" stroke-linecap="round" stroke-linejoin="round"/>
<path d="M51.8729 75.8431L52.6665 74.175L54.5845 75.0515L51.8729 75.8431Z" fill="#233447" stroke="#233447" stroke-width="0.25" stroke-linecap="round" stroke-linejoin="round"/>
<path d="M44.8623 80.9978L45.3348 77.1152L42.3303 77.2L44.8623 80.9978Z" fill="#CC6228" stroke="#CC6228" stroke-width="0.25" stroke-linecap="round" stroke-linejoin="round"/>
<path d="M54.4804 77.1152L54.9434 80.9978L57.4849 77.2L54.4804 77.1152Z" fill="#CC6228" stroke="#CC6228" stroke-width="0.25" stroke-linecap="round" stroke-linejoin="round"/>
<path d="M56.7574 72.8368L51.372 73.0818L51.8727 75.843L52.6664 74.175L54.5843 75.0514L56.7574 72.8368Z" fill="#CC6228" stroke="#CC6228" stroke-width="0.25" stroke-linecap="round" stroke-linejoin="round"/>
<path d="M45.2402 75.0514L47.1487 74.175L47.9424 75.843L48.4431 73.0818L43.0577 72.8368L45.2402 75.0514Z" fill="#CC6228" stroke="#CC6228" stroke-width="0.25" stroke-linecap="round" stroke-linejoin="round"/>
<path d="M43.0579 72.8368L45.316 77.2377L45.2404 75.0514L43.0579 72.8368Z" fill="#E27525" stroke="#E27525" stroke-width="0.25" stroke-linecap="round" stroke-linejoin="round"/>
<path d="M54.5845 75.0514L54.4995 77.2377L56.7576 72.8368L54.5845 75.0514Z" fill="#E27525" stroke="#E27525" stroke-width="0.25" stroke-linecap="round" stroke-linejoin="round"/>
<path d="M48.4434 73.0818L47.9426 75.843L48.5756 79.1036L48.7174 74.8064L48.4434 73.0818Z" fill="#E27525" stroke="#E27525" stroke-width="0.25" stroke-linecap="round" stroke-linejoin="round"/>
<path d="M51.3721 73.0818L51.1076 74.797L51.2399 79.1036L51.8729 75.843L51.3721 73.0818Z" fill="#E27525" stroke="#E27525" stroke-width="0.25" stroke-linecap="round" stroke-linejoin="round"/>
<path d="M51.8729 75.8431L51.2398 79.1037L51.6934 79.4241L54.4995 77.2378L54.5845 75.0515L51.8729 75.8431Z" fill="#F5841F" stroke="#F5841F" stroke-width="0.25" stroke-linecap="round" stroke-linejoin="round"/>
<path d="M45.2402 75.0515L45.3159 77.2378L48.1219 79.4241L48.5754 79.1037L47.9424 75.8431L45.2402 75.0515Z" fill="#F5841F" stroke="#F5841F" stroke-width="0.25" stroke-linecap="round" stroke-linejoin="round"/>
<path d="M51.9296 82.4303L51.9579 81.5351L51.7123 81.3277H48.1031L47.8669 81.5351L47.8858 82.4303L44.8624 80.9979L45.9206 81.8649L48.0653 83.3444H51.7406L53.8948 81.8649L54.9435 80.9979L51.9296 82.4303Z" fill="#C0AC9D" stroke="#C0AC9D" stroke-width="0.25" stroke-linecap="round" stroke-linejoin="round"/>
<path d="M51.6933 79.4241L51.2398 79.1037H48.5754L48.122 79.4241L47.8668 81.535L48.1031 81.3277H51.7122L51.9579 81.535L51.6933 79.4241Z" fill="#161616" stroke="#161616" stroke-width="0.25" stroke-linecap="round" stroke-linejoin="round"/>
<path d="M61.3304 68.2569L62.1335 64.3554L60.9241 60.7273L51.6934 67.5596L55.2458 70.5563L60.2627 72.017L61.3682 70.726L60.8864 70.3772L61.6516 69.6799L61.0659 69.2276L61.8312 68.6433L61.3304 68.2569Z" fill="#763E1A" stroke="#763E1A" stroke-width="0.25" stroke-linecap="round" stroke-linejoin="round"/>
<path d="M37.6818 64.3554L38.4944 68.2569L37.9747 68.6433L38.7495 69.2276L38.1637 69.6799L38.929 70.3772L38.4471 70.726L39.5526 72.017L44.5695 70.5563L48.122 67.5596L38.8912 60.7273L37.6818 64.3554Z" fill="#763E1A" stroke="#763E1A" stroke-width="0.25" stroke-linecap="round" stroke-linejoin="round"/>
<path d="M60.2629 72.0169L55.2459 70.5563L56.7576 72.8369L54.4995 77.2377L57.4851 77.2001H61.9446L60.2629 72.0169Z" fill="#F5841F" stroke="#F5841F" stroke-width="0.25" stroke-linecap="round" stroke-linejoin="round"/>
<path d="M44.5694 70.5563L39.5525 72.0169L37.8802 77.2001H42.3302L45.3158 77.2377L43.0577 72.8369L44.5694 70.5563Z" fill="#F5841F" stroke="#F5841F" stroke-width="0.25" stroke-linecap="round" stroke-linejoin="round"/>
<path d="M51.3721 73.0819L51.6933 67.5595L53.1483 63.6298H46.6669L48.1219 67.5595L48.4431 73.0819L48.566 74.8158L48.5754 79.1037H51.2398L51.2492 74.8158L51.3721 73.0819Z" fill="#F5841F" stroke="#F5841F" stroke-width="0.25" stroke-linecap="round" stroke-linejoin="round"/>
</svg>
