<svg width="120" height="28" viewBox="0 0 120 28" fill="none" xmlns="http://www.w3.org/2000/svg">
<g clip-path="url(#clip0_229_3133)">
<path d="M49.576 18.1758C49.515 18.0567 49.4632 17.9197 49.4206 17.7648C49.3778 17.6099 49.3413 17.4461 49.3109 17.2734C49.1706 17.4223 49.0091 17.5623 48.8262 17.6933C48.6433 17.8244 48.4391 17.9405 48.2136 18.0417C47.9941 18.1371 47.7502 18.2115 47.482 18.2651C47.2138 18.3247 46.9242 18.3544 46.6134 18.3544C46.1074 18.3544 45.641 18.283 45.2143 18.1401C44.7937 17.9971 44.431 17.7975 44.1261 17.5414C43.8214 17.2853 43.5836 16.9816 43.413 16.6301C43.2423 16.2727 43.1569 15.8855 43.1569 15.4686C43.1569 14.4501 43.5441 13.6639 44.3182 13.11C45.0985 12.55 46.2598 12.2701 47.8021 12.2701H49.2193V11.6983C49.2193 11.2337 49.064 10.8674 48.753 10.5994C48.4421 10.3253 47.9941 10.1884 47.4089 10.1884C46.8907 10.1884 46.5128 10.2986 46.275 10.519C46.0373 10.7334 45.9184 11.0223 45.9184 11.3856H43.3764C43.3764 10.9746 43.4678 10.5844 43.6507 10.2152C43.8397 9.84585 44.1109 9.52131 44.4645 9.24131C44.8242 8.9614 45.2601 8.741 45.7721 8.58018C46.2903 8.4134 46.8816 8.33002 47.5461 8.33002C48.1435 8.33002 48.6981 8.4015 49.2102 8.54445C49.7284 8.68739 50.1765 8.89884 50.5544 9.17875C50.9324 9.45875 51.228 9.81313 51.4414 10.242C51.6547 10.6649 51.7614 11.1563 51.7614 11.7162V15.8617C51.7614 16.3799 51.795 16.8088 51.862 17.1483C51.929 17.4878 52.0266 17.7797 52.1546 18.0239V18.1758H49.576ZM47.1528 16.4336C47.4089 16.4336 47.6466 16.4038 47.866 16.3442C48.0855 16.2846 48.2836 16.2072 48.4605 16.1119C48.6373 16.0166 48.7896 15.9094 48.9176 15.7903C49.0456 15.6652 49.1463 15.5401 49.2193 15.4151V13.7533H47.9209C47.5247 13.7533 47.1863 13.7919 46.9059 13.8694C46.6255 13.9409 46.3969 14.0451 46.2201 14.1821C46.0434 14.3131 45.9123 14.4739 45.8269 14.6646C45.7416 14.8492 45.699 15.0517 45.699 15.2721C45.699 15.6056 45.8178 15.8826 46.0555 16.103C46.2994 16.3234 46.6651 16.4336 47.1528 16.4336Z" fill="white"/>
<path d="M61.7467 8.33002C62.1307 8.33002 62.4843 8.35682 62.8074 8.41043C63.1366 8.45807 63.4018 8.51168 63.6029 8.57125L63.228 11.0461C62.8927 10.9687 62.5483 10.912 62.1948 10.8763C61.8472 10.8346 61.5151 10.8138 61.1981 10.8138C60.4848 10.8138 59.9118 10.9478 59.4789 11.2158C59.0522 11.4839 58.7322 11.8681 58.5188 12.3684V18.1758H55.9768V8.50871H58.3451L58.464 10.0901C58.8663 9.54214 59.3479 9.1133 59.9088 8.80355C60.4696 8.48786 61.0822 8.33002 61.7467 8.33002Z" fill="white"/>
<path d="M72.2166 15.147L73.0761 8.50873H75.4077L73.6338 18.1758H71.4027L70.1043 12.0289L68.8515 18.1758H66.6204L64.8465 8.50873H67.169L68.0286 15.1738L69.2722 8.50873H70.9729L72.2166 15.147Z" fill="white"/>
<path d="M81.9365 18.3544C81.1745 18.3544 80.4827 18.2324 79.8609 17.9882C79.2391 17.7439 78.7057 17.4134 78.2607 16.9964C77.8157 16.5736 77.4713 16.0792 77.2274 15.5133C76.9897 14.9415 76.8708 14.331 76.8708 13.6818V13.3243C76.8708 12.5858 76.9897 11.9127 77.2274 11.3052C77.4652 10.6917 77.7974 10.1645 78.2242 9.72379C78.6509 9.28305 79.1568 8.94057 79.7421 8.69633C80.3272 8.45212 80.9643 8.33002 81.6531 8.33002C82.3663 8.33002 83.0003 8.44616 83.5551 8.67846C84.1159 8.90479 84.5884 9.22644 84.9724 9.64338C85.3626 10.0603 85.6582 10.5636 85.8594 11.1533C86.0605 11.737 86.1611 12.3833 86.1611 13.0921V14.1463H79.4494C79.4982 14.4739 79.5957 14.7747 79.7421 15.0487C79.8944 15.3168 80.0865 15.549 80.3181 15.7456C80.5497 15.9422 80.8149 16.094 81.1136 16.2012C81.4123 16.3085 81.7385 16.3621 82.092 16.3621C82.342 16.3621 82.5888 16.3383 82.8327 16.2906C83.0826 16.243 83.3204 16.1745 83.5459 16.0851C83.7715 15.9898 83.9818 15.8736 84.1769 15.7367C84.3719 15.5997 84.5426 15.4388 84.6889 15.2542L85.96 16.5944C85.8014 16.8148 85.5942 17.0321 85.3382 17.2466C85.0882 17.455 84.7895 17.6427 84.442 17.8095C84.1007 17.9703 83.7196 18.1013 83.299 18.2025C82.8785 18.3039 82.4242 18.3544 81.9365 18.3544ZM81.6348 10.3402C81.3483 10.3402 81.0862 10.3909 80.8485 10.4921C80.6107 10.5874 80.4004 10.7274 80.2175 10.912C80.0407 11.0967 79.8914 11.3171 79.7695 11.5732C79.6475 11.8293 79.5561 12.1153 79.4952 12.431H83.6648V12.2343C83.6526 11.9723 83.6008 11.7251 83.5094 11.4928C83.4179 11.2606 83.2868 11.061 83.1161 10.8942C82.9454 10.7215 82.7352 10.5874 82.4852 10.4921C82.2414 10.3909 81.9579 10.3402 81.6348 10.3402Z" fill="white"/>
<path d="M94.5645 18.1758C94.5036 18.0567 94.4517 17.9197 94.4087 17.7648C94.3666 17.6099 94.3299 17.4461 94.2994 17.2734C94.1588 17.4223 93.9976 17.5623 93.8149 17.6933C93.6314 17.8244 93.4272 17.9405 93.2024 18.0417C92.9821 18.1371 92.7385 18.2115 92.4708 18.2651C92.2021 18.3247 91.9128 18.3544 91.6021 18.3544C91.0961 18.3544 90.6296 18.283 90.2024 18.1401C89.7824 17.9971 89.4194 17.7975 89.1146 17.5414C88.8098 17.2853 88.5721 16.9816 88.4014 16.6301C88.2307 16.2727 88.1454 15.8855 88.1454 15.4686C88.1454 14.4501 88.5324 13.6639 89.3066 13.11C90.0869 12.55 91.2484 12.2701 92.7905 12.2701H94.2081V11.6983C94.2081 11.2337 94.0523 10.8674 93.7415 10.5994C93.4308 10.3253 92.9821 10.1884 92.3973 10.1884C91.8788 10.1884 91.5009 10.2986 91.2636 10.519C91.0254 10.7334 90.9072 11.0223 90.9072 11.3856H88.3648C88.3648 10.9746 88.4562 10.5844 88.6391 10.2152C88.8281 9.84585 89.0994 9.52131 89.4529 9.24131C89.8128 8.9614 90.2481 8.741 90.7603 8.58018C91.2788 8.4134 91.8699 8.33002 92.5343 8.33002C93.1317 8.33002 93.6869 8.4015 94.1991 8.54445C94.7167 8.68739 95.1645 8.89884 95.5424 9.17875C95.9212 9.45875 96.2167 9.81313 96.4299 10.242C96.643 10.6649 96.7496 11.1563 96.7496 11.7162V15.8617C96.7496 16.3799 96.7836 16.8088 96.8508 17.1483C96.9179 17.4878 97.0146 17.7797 97.1427 18.0239V18.1758H94.5645ZM92.1412 16.4336C92.3973 16.4336 92.6346 16.4038 92.8549 16.3442C93.0743 16.2846 93.2722 16.2072 93.4487 16.1119C93.626 16.0166 93.7782 15.9094 93.9063 15.7903C94.0343 15.6652 94.1346 15.5401 94.2081 15.4151V13.7533H92.9096C92.5128 13.7533 92.1752 13.7919 91.894 13.8694C91.6137 13.9409 91.3854 14.0451 91.209 14.1821C91.0317 14.3131 90.9009 14.4739 90.8158 14.6646C90.7299 14.8492 90.6878 15.0517 90.6878 15.2721C90.6878 15.6056 90.806 15.8826 91.0442 16.103C91.2878 16.3234 91.654 16.4336 92.1412 16.4336Z" fill="white"/>
<path d="M103.837 15.3078L103.965 16.0047L104.093 15.3347L106.269 8.50873H108.921L105.162 18.1758H102.776L98.9991 8.50873H101.651L103.837 15.3078Z" fill="white"/>
<path d="M115.678 18.3544C114.916 18.3544 114.224 18.2324 113.602 17.9882C112.98 17.7439 112.447 17.4134 112.002 16.9964C111.557 16.5736 111.212 16.0792 110.969 15.5133C110.731 14.9415 110.612 14.331 110.612 13.6818V13.3243C110.612 12.5858 110.731 11.9127 110.969 11.3052C111.207 10.6917 111.539 10.1645 111.965 9.72379C112.393 9.28305 112.899 8.94057 113.483 8.69633C114.069 8.45212 114.706 8.33002 115.394 8.33002C116.108 8.33002 116.741 8.44616 117.296 8.67846C117.857 8.90479 118.33 9.22644 118.714 9.64338C119.104 10.0603 119.399 10.5636 119.601 11.1533C119.802 11.737 119.902 12.3833 119.902 13.0921V14.1463H113.19C113.24 14.4739 113.337 14.7747 113.483 15.0487C113.636 15.3168 113.828 15.549 114.059 15.7456C114.291 15.9422 114.556 16.094 114.855 16.2012C115.153 16.3085 115.479 16.3621 115.833 16.3621C116.083 16.3621 116.33 16.3383 116.574 16.2906C116.824 16.243 117.062 16.1745 117.287 16.0851C117.513 15.9898 117.723 15.8736 117.918 15.7367C118.113 15.5997 118.284 15.4388 118.43 15.2542L119.701 16.5944C119.542 16.8148 119.336 17.0321 119.079 17.2466C118.83 17.455 118.53 17.6427 118.183 17.8095C117.842 17.9703 117.461 18.1013 117.04 18.2025C116.619 18.3039 116.165 18.3544 115.678 18.3544ZM115.376 10.3402C115.09 10.3402 114.827 10.3909 114.59 10.4921C114.352 10.5874 114.141 10.7274 113.959 10.912C113.782 11.0967 113.633 11.3171 113.511 11.5732C113.389 11.8293 113.297 12.1153 113.236 12.431H117.406V12.2343C117.394 11.9723 117.342 11.7251 117.251 11.4928C117.159 11.2606 117.028 11.061 116.858 10.8942C116.687 10.7215 116.476 10.5874 116.226 10.4921C115.983 10.3909 115.699 10.3402 115.376 10.3402Z" fill="white"/>
<path d="M14.6652 26.8236C21.9176 26.8236 27.7969 21.0791 27.7969 13.9929C27.7969 6.90669 21.9176 1.16217 14.6652 1.16217C7.41276 1.16217 1.53351 6.90669 1.53351 13.9929C1.53351 21.0791 7.41276 26.8236 14.6652 26.8236Z" stroke="white" stroke-width="2.5"/>
<path d="M17.1167 18.6295C17.0529 18.5049 16.9987 18.3615 16.9541 18.1996C16.9094 18.0375 16.8712 17.8662 16.8393 17.6855C16.6926 17.8413 16.5236 17.9877 16.3324 18.1248C16.141 18.2619 15.9274 18.3834 15.6914 18.4893C15.4619 18.5889 15.2068 18.6669 14.9262 18.7229C14.6456 18.7852 14.3428 18.8164 14.0175 18.8164C13.4883 18.8164 13.0004 18.7416 12.5541 18.5921C12.114 18.4426 11.7346 18.2339 11.4158 17.9659C11.0969 17.698 10.8482 17.3802 10.6696 17.0126C10.491 16.6387 10.4019 16.2338 10.4019 15.7976C10.4019 14.7321 10.8067 13.9097 11.6166 13.3302C12.4329 12.7446 13.6477 12.4517 15.261 12.4517H16.7437V11.8535C16.7437 11.3675 16.581 10.9843 16.2558 10.704C15.9306 10.4173 15.4619 10.274 14.8497 10.274C14.3077 10.274 13.9123 10.3893 13.6636 10.6198C13.4149 10.8441 13.2905 11.1464 13.2905 11.5264H10.6314C10.6314 11.0965 10.727 10.6884 10.9183 10.3021C11.116 9.91576 11.3998 9.57618 11.7697 9.28331C12.1459 8.99045 12.6019 8.75998 13.1375 8.59171C13.6796 8.41725 14.2981 8.33002 14.9932 8.33002C15.6181 8.33002 16.1984 8.40479 16.7341 8.55432C17.2762 8.70386 17.7448 8.92509 18.1402 9.21786C18.5355 9.51073 18.8448 9.88146 19.068 10.3301C19.2913 10.7725 19.4028 11.2865 19.4028 11.8722V16.2089C19.4028 16.7509 19.4379 17.1995 19.5081 17.5547C19.5782 17.9099 19.6802 18.2151 19.8142 18.4706V18.6295H17.1167ZM14.5819 16.807C14.8497 16.807 15.0984 16.7759 15.3279 16.7136C15.5576 16.6512 15.7648 16.5702 15.9497 16.4705C16.1346 16.3708 16.294 16.2586 16.428 16.134C16.5619 16.0032 16.6671 15.8723 16.7437 15.7415V14.0031H15.3853C14.9709 14.0031 14.617 14.0437 14.3236 14.1246C14.0302 14.1994 13.7911 14.3084 13.6062 14.4518C13.4213 14.5888 13.2842 14.7571 13.1949 14.9565C13.1056 15.1496 13.061 15.3614 13.061 15.592C13.061 15.9409 13.1853 16.2306 13.434 16.4612C13.6891 16.6917 14.0717 16.807 14.5819 16.807Z" fill="white"/>
</g>
<defs>
<clipPath id="clip0_229_3133">
<rect width="120" height="28" fill="white"/>
</clipPath>
</defs>
</svg>
