<svg width="126" height="24" viewBox="0 0 126 24" fill="none" xmlns="http://www.w3.org/2000/svg">
<path fill-rule="evenodd" clip-rule="evenodd" d="M108.753 11.405C109.179 11.6216 109.604 11.838 110.004 12.1019C111.11 12.8369 111.478 13.9489 111.279 15.1835C111.053 16.4462 109.938 17.6619 107.784 17.6619C106.961 17.6619 106.168 17.4357 105.441 16.8892C104.666 16.3143 104.383 15.6829 104.383 14.5427C104.383 14.5144 104.411 14.4861 104.439 14.4861H106.017C106.045 14.4861 106.073 14.5144 106.073 14.5427C106.073 14.6463 106.092 14.8819 106.13 15.0044C106.348 15.6829 106.971 16.1164 107.775 16.1635C108.511 16.2107 109.248 15.8054 109.532 15.2211C109.844 14.5803 109.617 13.7699 108.899 13.3269C108.46 13.0561 107.529 12.5704 106.819 12.1994L106.819 12.1993L106.819 12.1992C106.367 11.9635 106.005 11.7741 105.913 11.7155C103.844 10.4339 104.193 6.37219 108.039 6.37219C108.785 6.37219 109.484 6.61721 110.099 7.07898C110.741 7.5596 111.091 8.31349 111.167 9.21821C111.176 9.25589 111.148 9.28418 111.11 9.28418H109.655C109.626 9.28418 109.598 9.26527 109.598 9.23705C109.428 7.92709 107.831 7.56905 106.868 8.20985C106.196 8.66221 106.064 9.6988 106.707 10.2265C106.995 10.4639 107.333 10.6465 107.671 10.8286L107.671 10.8288L107.671 10.8289L107.671 10.829L107.672 10.829L107.672 10.8291C107.776 10.8853 107.88 10.9415 107.983 10.9993C108.236 11.1417 108.495 11.2734 108.753 11.4049L108.753 11.405ZM40.7968 6.57958H41.4959H42.4219C42.4502 6.57958 42.4785 6.60785 42.4785 6.63612V17.5112C42.4785 17.5394 42.4502 17.5677 42.4219 17.5677H40.844C40.8157 17.5677 40.7873 17.5394 40.7873 17.5112V9.2465C40.7873 9.18054 40.6928 9.1617 40.6739 9.22767L39.3701 13.5155L39.2756 13.817C39.2662 13.8359 39.2473 13.8548 39.219 13.8548H38.0096C37.9812 13.8548 37.9623 13.8453 37.9528 13.817L37.8584 13.5155L36.5546 9.22767C36.5357 9.17116 36.4412 9.18054 36.4412 9.2465V17.5112C36.4412 17.5394 36.4128 17.5677 36.3845 17.5677H34.8067C34.7783 17.5677 34.7499 17.5394 34.7499 17.5112V6.63612C34.7499 6.60785 34.7783 6.57958 34.8067 6.57958H35.7515H36.4507H37.2159C37.2443 6.57958 37.2632 6.589 37.2726 6.61727L38.567 10.8768C38.5859 10.9334 38.6615 10.9334 38.6804 10.8768L39.9747 6.61727C39.9842 6.59842 40.0031 6.57958 40.0315 6.57958H40.7968ZM85.8451 6.57958C85.8167 6.57958 85.7978 6.59842 85.7884 6.61727L84.4945 10.8768C84.4756 10.9334 84.4 10.9334 84.3811 10.8768L83.0865 6.61727C83.0771 6.589 83.0582 6.57958 83.0298 6.57958H80.6298C80.6014 6.57958 80.5731 6.60785 80.5731 6.63612V17.5112C80.5731 17.5394 80.6014 17.5677 80.6298 17.5677H82.208C82.2364 17.5677 82.2647 17.5394 82.2647 17.5112V9.2465C82.2647 9.18054 82.3593 9.17116 82.3782 9.22767L83.6814 13.5155L83.776 13.817C83.7854 13.8453 83.8044 13.8548 83.8327 13.8548H85.0422C85.0705 13.8548 85.0894 13.8359 85.0989 13.817L85.1934 13.5155L86.4974 9.22767C86.5164 9.1617 86.6109 9.18054 86.6109 9.2465V17.5112C86.6109 17.5394 86.6393 17.5677 86.6676 17.5677H88.2451C88.2734 17.5677 88.3018 17.5394 88.3018 17.5112V6.63612C88.3018 6.60785 88.2734 6.57958 88.2451 6.57958H85.8451ZM62.5556 6.57958H65.494C65.5318 6.57958 65.5507 6.60785 65.5507 6.63612V7.99312C65.5507 8.02141 65.5224 8.0497 65.494 8.0497H62.6124V17.5112C62.6124 17.5394 62.584 17.5677 62.5556 17.5677H60.9778C60.9494 17.5677 60.9212 17.5394 60.9212 17.5112V8.0497H58.0395C58.0111 8.0497 57.9828 8.02141 57.9828 7.99312V6.63612C57.9828 6.60785 58.0111 6.57958 58.0395 6.57958H60.9778H62.5556ZM74.8007 17.5676H76.2363C76.2742 17.5676 76.3025 17.5299 76.2931 17.4923L73.3265 6.57945C73.3171 6.55118 73.2982 6.54176 73.2698 6.54176H72.722H71.7582H71.2102C71.1819 6.54176 71.163 6.56061 71.1535 6.57945L68.1868 17.4923C68.1774 17.5299 68.2057 17.5676 68.2436 17.5676H69.6796C69.708 17.5676 69.7269 17.5488 69.7364 17.5299L70.5961 14.3541C70.6055 14.3259 70.6244 14.3164 70.6528 14.3164H73.8276C73.856 14.3164 73.8749 14.3352 73.8844 14.3541L74.744 17.5299C74.7534 17.5488 74.7818 17.5676 74.8007 17.5676ZM71.0307 12.7615L72.1834 8.51131C72.2022 8.4548 72.2779 8.4548 72.2968 8.51131L73.4494 12.7615C73.4589 12.7992 73.4305 12.8368 73.3927 12.8368H71.0874C71.0496 12.8368 71.0213 12.7992 71.0307 12.7615ZM100.726 17.5676H99.2902C99.2618 17.5676 99.2429 17.5488 99.2334 17.5299L98.3738 14.3541C98.3644 14.3352 98.3454 14.3164 98.3171 14.3164H95.1425C95.1142 14.3164 95.0953 14.3259 95.0858 14.3541L94.2262 17.5299C94.2167 17.5488 94.1978 17.5676 94.1694 17.5676H92.7331C92.6953 17.5676 92.6669 17.5299 92.6763 17.4923L95.6429 6.57945C95.6523 6.56061 95.6713 6.54176 95.6996 6.54176H96.248H97.2116H97.7593C97.7876 6.54176 97.8065 6.55118 97.816 6.57945L100.783 17.4923C100.792 17.5299 100.764 17.5676 100.726 17.5676ZM96.6727 8.51131L95.52 12.7615C95.5105 12.7992 95.5389 12.8368 95.5767 12.8368H97.8822C97.92 12.8368 97.9483 12.7992 97.9389 12.7615L96.7862 8.51131C96.7673 8.4548 96.6916 8.4548 96.6727 8.51131ZM48.8844 15.9563V12.5825C48.8844 12.5543 48.9127 12.526 48.9411 12.526H53.1455C53.1738 12.526 53.2022 12.4977 53.2022 12.4694V11.1124C53.2022 11.0842 53.1738 11.0559 53.1455 11.0559H48.9411C48.9127 11.0559 48.8844 11.0276 48.8844 10.9993V8.11567C48.8844 8.08738 48.9127 8.05909 48.9411 8.05909H53.7218C53.7502 8.05909 53.7785 8.0308 53.7785 8.00258V6.64553C53.7785 6.61727 53.7502 6.58899 53.7218 6.58899H48.8844H47.2499C47.2215 6.58899 47.1932 6.61727 47.1932 6.64553V8.05909V11.0653V12.5355V16.0222V17.5112C47.1932 17.5395 47.2215 17.5677 47.2499 17.5677H48.8844H53.9202C53.9486 17.5677 53.9769 17.5395 53.9769 17.5112V16.0788C53.9769 16.0505 53.9486 16.0222 53.9202 16.0222H48.9316C48.9033 16.0128 48.8844 15.9939 48.8844 15.9563ZM118.961 11.8475L124.422 17.4735C124.46 17.5018 124.431 17.5677 124.393 17.5772H122.381C122.372 17.5772 122.353 17.5677 122.343 17.5583L117.62 12.6956C117.591 12.6579 117.525 12.6862 117.525 12.7333V17.5206C117.525 17.5489 117.497 17.5772 117.468 17.5772H115.89C115.862 17.5772 115.833 17.5489 115.833 17.5206V6.64553C115.833 6.61727 115.862 6.58899 115.89 6.58899H117.468C117.497 6.58899 117.525 6.61727 117.525 6.64553V10.8862C117.525 10.9333 117.582 10.9616 117.62 10.924L121.786 6.60784V6.60783C121.796 6.59841 121.805 6.58899 121.824 6.58899H123.836C123.884 6.58899 123.912 6.64554 123.874 6.68323L118.961 11.7721C118.942 11.7909 118.942 11.8286 118.961 11.8475Z" fill="white"/>
<path d="M23.9697 0.727295L14.4176 7.79515L16.1939 3.62983L23.9697 0.727295Z" fill="#E17726" stroke="#E17726" stroke-width="0.25" stroke-linecap="round" stroke-linejoin="round"/>
<path d="M1.93661 0.727295L11.4036 7.86111L9.71244 3.62983L1.93661 0.727295Z" fill="#E27625" stroke="#E27625" stroke-width="0.25" stroke-linecap="round" stroke-linejoin="round"/>
<path d="M20.5303 17.1152L17.9888 20.9979L23.4309 22.4963L24.9899 17.2001L20.5303 17.1152Z" fill="#E27625" stroke="#E27625" stroke-width="0.25" stroke-linecap="round" stroke-linejoin="round"/>
<path d="M0.925604 17.2001L2.47509 22.4963L7.90778 20.9979L5.37566 17.1152L0.925604 17.2001Z" fill="#E27625" stroke="#E27625" stroke-width="0.25" stroke-linecap="round" stroke-linejoin="round"/>
<path d="M7.61483 10.5564L6.10316 12.8369L11.4886 13.082L11.3091 7.28632L7.61483 10.5564Z" fill="#E27625" stroke="#E27625" stroke-width="0.25" stroke-linecap="round" stroke-linejoin="round"/>
<path d="M18.2911 10.5564L14.5403 7.2204L14.4174 13.082L19.8028 12.837L18.2911 10.5564Z" fill="#E27625" stroke="#E27625" stroke-width="0.25" stroke-linecap="round" stroke-linejoin="round"/>
<path d="M7.90785 20.9979L11.1674 19.4241L8.36137 17.2378L7.90785 20.9979Z" fill="#E27625" stroke="#E27625" stroke-width="0.25" stroke-linecap="round" stroke-linejoin="round"/>
<path d="M14.7388 19.4241L17.9889 20.9979L17.5448 17.2378L14.7388 19.4241Z" fill="#E27625" stroke="#E27625" stroke-width="0.25" stroke-linecap="round" stroke-linejoin="round"/>
<path d="M17.9889 20.998L14.7388 19.4243L15.0033 21.5352L14.975 22.4304L17.9889 20.998Z" fill="#D5BFB2" stroke="#D5BFB2" stroke-width="0.25" stroke-linecap="round" stroke-linejoin="round"/>
<path d="M7.90785 20.998L10.9313 22.4304L10.9124 21.5352L11.1674 19.4243L7.90785 20.998Z" fill="#D5BFB2" stroke="#D5BFB2" stroke-width="0.25" stroke-linecap="round" stroke-linejoin="round"/>
<path d="M10.9879 15.8431L8.28569 15.0515L10.1942 14.175L10.9879 15.8431Z" fill="#233447" stroke="#233447" stroke-width="0.25" stroke-linecap="round" stroke-linejoin="round"/>
<path d="M14.9183 15.8431L15.712 14.175L17.63 15.0515L14.9183 15.8431Z" fill="#233447" stroke="#233447" stroke-width="0.25" stroke-linecap="round" stroke-linejoin="round"/>
<path d="M7.90778 20.9979L8.38022 17.1152L5.37571 17.2001L7.90778 20.9979Z" fill="#CC6228" stroke="#CC6228" stroke-width="0.25" stroke-linecap="round" stroke-linejoin="round"/>
<path d="M17.5259 17.1152L17.9889 20.9979L20.5304 17.2001L17.5259 17.1152Z" fill="#CC6228" stroke="#CC6228" stroke-width="0.25" stroke-linecap="round" stroke-linejoin="round"/>
<path d="M19.8028 12.8369L14.4174 13.0819L14.9182 15.8431L15.7118 14.175L17.6298 15.0515L19.8028 12.8369Z" fill="#CC6228" stroke="#CC6228" stroke-width="0.25" stroke-linecap="round" stroke-linejoin="round"/>
<path d="M8.28567 15.0515L10.1942 14.175L10.9879 15.8431L11.4886 13.0819L6.10316 12.8369L8.28567 15.0515Z" fill="#CC6228" stroke="#CC6228" stroke-width="0.25" stroke-linecap="round" stroke-linejoin="round"/>
<path d="M6.10334 12.8369L8.36145 17.2378L8.28582 15.0515L6.10334 12.8369Z" fill="#E27525" stroke="#E27525" stroke-width="0.25" stroke-linecap="round" stroke-linejoin="round"/>
<path d="M17.63 15.0515L17.545 17.2378L19.8031 12.8369L17.63 15.0515Z" fill="#E27525" stroke="#E27525" stroke-width="0.25" stroke-linecap="round" stroke-linejoin="round"/>
<path d="M11.4889 13.0818L10.9881 15.8431L11.6211 19.1037L11.7628 14.8064L11.4889 13.0818Z" fill="#E27525" stroke="#E27525" stroke-width="0.25" stroke-linecap="round" stroke-linejoin="round"/>
<path d="M14.4176 13.0818L14.153 14.797L14.2853 19.1037L14.9183 15.8431L14.4176 13.0818Z" fill="#E27525" stroke="#E27525" stroke-width="0.25" stroke-linecap="round" stroke-linejoin="round"/>
<path d="M14.9183 15.8431L14.2853 19.1037L14.7388 19.4242L17.5449 17.2378L17.6299 15.0515L14.9183 15.8431Z" fill="#F5841F" stroke="#F5841F" stroke-width="0.25" stroke-linecap="round" stroke-linejoin="round"/>
<path d="M8.28569 15.0515L8.36132 17.2378L11.1674 19.4242L11.6209 19.1037L10.9879 15.8431L8.28569 15.0515Z" fill="#F5841F" stroke="#F5841F" stroke-width="0.25" stroke-linecap="round" stroke-linejoin="round"/>
<path d="M14.975 22.4304L15.0033 21.5351L14.7577 21.3277H11.1486L10.9124 21.5351L10.9313 22.4304L7.90785 20.9979L8.96603 21.8649L11.1108 23.3445H14.786L16.9402 21.8649L17.9889 20.9979L14.975 22.4304Z" fill="#C0AC9D" stroke="#C0AC9D" stroke-width="0.25" stroke-linecap="round" stroke-linejoin="round"/>
<path d="M14.7388 19.4241L14.2852 19.1038H11.6209L11.1674 19.4241L10.9123 21.5351L11.1485 21.3278H14.7577L15.0033 21.5351L14.7388 19.4241Z" fill="#161616" stroke="#161616" stroke-width="0.25" stroke-linecap="round" stroke-linejoin="round"/>
<path d="M24.3758 8.25689L25.179 4.35546L23.9696 0.727295L14.7388 7.55959L18.2912 10.5563L23.3082 12.017L24.4137 10.726L23.9318 10.3773L24.6971 9.67995L24.1113 9.22758L24.8766 8.64329L24.3758 8.25689Z" fill="#763E1A" stroke="#763E1A" stroke-width="0.25" stroke-linecap="round" stroke-linejoin="round"/>
<path d="M0.727272 4.35546L1.53981 8.25689L1.02017 8.64329L1.79491 9.22758L1.20913 9.67995L1.97442 10.3773L1.49257 10.726L2.598 12.017L7.61498 10.5563L11.1674 7.55959L1.93663 0.727295L0.727272 4.35546Z" fill="#763E1A" stroke="#763E1A" stroke-width="0.25" stroke-linecap="round" stroke-linejoin="round"/>
<path d="M23.3083 12.017L18.2914 10.5563L19.8031 12.8369L17.545 17.2378L20.5306 17.2001H24.9901L23.3083 12.017Z" fill="#F5841F" stroke="#F5841F" stroke-width="0.25" stroke-linecap="round" stroke-linejoin="round"/>
<path d="M7.61483 10.5563L2.59792 12.017L0.925604 17.2001H5.37566L8.36123 17.2378L6.10317 12.8369L7.61483 10.5563Z" fill="#F5841F" stroke="#F5841F" stroke-width="0.25" stroke-linecap="round" stroke-linejoin="round"/>
<path d="M14.4175 13.0819L14.7388 7.55952L16.1937 3.62982H9.71236L11.1673 7.55952L11.4886 13.0819L11.6114 14.8159L11.6209 19.1037H14.2852L14.2947 14.8159L14.4175 13.0819Z" fill="#F5841F" stroke="#F5841F" stroke-width="0.25" stroke-linecap="round" stroke-linejoin="round"/>
</svg>
