<svg width="101" height="49" viewBox="0 0 101 49" fill="none" xmlns="http://www.w3.org/2000/svg">
<g filter="url(#filter0_d_229_2251)">
<rect x="2" y="2" width="96" height="44" rx="3.54545" fill="#222326"/>
<path d="M27.3695 28.7048C27.3055 28.5756 27.251 28.427 27.2062 28.2591C27.1613 28.0911 27.1229 27.9135 27.0909 27.7262C26.9435 27.8877 26.7738 28.0395 26.5816 28.1816C26.3894 28.3237 26.1748 28.4496 25.9378 28.5594C25.7072 28.6628 25.4509 28.7435 25.1691 28.8017C24.8872 28.8663 24.5829 28.8986 24.2562 28.8986C23.7245 28.8986 23.2345 28.821 22.7861 28.666C22.344 28.511 21.9629 28.2946 21.6426 28.0169C21.3223 27.7391 21.0725 27.4097 20.8931 27.0286C20.7137 26.641 20.624 26.2212 20.624 25.769C20.624 24.6645 21.0308 23.8118 21.8444 23.2111C22.6643 22.6039 23.8847 22.3003 25.5054 22.3003H26.9948V21.6802C26.9948 21.1764 26.8314 20.7792 26.5047 20.4885C26.178 20.1913 25.7072 20.0428 25.0922 20.0428C24.5477 20.0428 24.1505 20.1623 23.9007 20.4013C23.6509 20.6338 23.5259 20.9471 23.5259 21.3411H20.8547C20.8547 20.8954 20.9507 20.4723 21.1429 20.0719C21.3415 19.6714 21.6266 19.3193 21.9981 19.0157C22.3761 18.7122 22.8341 18.4732 23.3722 18.2988C23.9167 18.1179 24.5381 18.0275 25.2363 18.0275C25.8641 18.0275 26.4471 18.105 26.9852 18.26C27.5297 18.415 28.0005 18.6443 28.3977 18.9479C28.7949 19.2515 29.1055 19.6358 29.3298 20.1009C29.554 20.5595 29.6661 21.0924 29.6661 21.6996V26.1953C29.6661 26.7573 29.7013 27.2224 29.7718 27.5905C29.8422 27.9587 29.9447 28.2752 30.0793 28.5401V28.7048H27.3695ZM24.8232 26.8154C25.0922 26.8154 25.342 26.7831 25.5727 26.7185C25.8033 26.6539 26.0115 26.57 26.1972 26.4666C26.383 26.3633 26.5432 26.247 26.6777 26.1178C26.8122 25.9822 26.9179 25.8465 26.9948 25.7109V23.9087H25.6303C25.2139 23.9087 24.8584 23.9507 24.5637 24.0347C24.269 24.1122 24.0288 24.2252 23.843 24.3738C23.6573 24.5159 23.5195 24.6903 23.4299 24.897C23.3402 25.0972 23.2953 25.3168 23.2953 25.5558C23.2953 25.9176 23.4202 26.2179 23.6701 26.4569C23.9263 26.6959 24.3107 26.8154 24.8232 26.8154Z" fill="white"/>
<path d="M38.7368 23.939C38.7368 31.5149 32.6487 37.6395 25.1593 37.6395C17.6698 37.6395 11.5817 31.5149 11.5817 23.939C11.5817 16.3631 17.6698 10.2385 25.1593 10.2385C32.6487 10.2385 38.7368 16.3631 38.7368 23.939Z" stroke="white" stroke-width="2.36364"/>
<path d="M47.6055 18.9442H48.4894C48.8126 18.9442 49.1045 18.8976 49.3652 18.8045C49.6259 18.7114 49.8486 18.5814 50.0332 18.4143C50.2152 18.25 50.355 18.0542 50.4528 17.827C50.5533 17.5997 50.6035 17.3519 50.6035 17.0836C50.6035 16.796 50.5533 16.5345 50.4528 16.2991C50.355 16.0636 50.2152 15.8609 50.0332 15.6912C49.8486 15.5241 49.6259 15.3941 49.3652 15.301C49.1045 15.2051 48.8126 15.1572 48.4894 15.1572H46.4609V21.1375H47.6055V18.9442ZM47.6055 18.0077V16.0937H48.4894C48.6523 16.0937 48.7936 16.1197 48.913 16.1717C49.0325 16.2238 49.133 16.295 49.2145 16.3853C49.2932 16.4757 49.3516 16.5811 49.3896 16.7016C49.4304 16.8221 49.4507 16.9521 49.4507 17.0918C49.4507 17.2122 49.4304 17.3286 49.3896 17.4409C49.3516 17.5504 49.2932 17.6476 49.2145 17.7325C49.133 17.8174 49.0325 17.8845 48.913 17.9338C48.7936 17.9831 48.6523 18.0077 48.4894 18.0077H47.6055Z" fill="white"/>
<path d="M53.577 21.2196C54.0034 21.2196 54.3727 21.1361 54.685 20.9691C54.9973 20.802 55.2254 20.6158 55.3693 20.4105L54.8031 19.7944C54.6728 19.9641 54.5031 20.0915 54.294 20.1764C54.0849 20.2612 53.869 20.3037 53.6463 20.3037C53.4888 20.3037 53.3435 20.279 53.2104 20.2298C53.0774 20.1805 52.9593 20.1106 52.8561 20.0203C52.7556 19.9327 52.6755 19.8354 52.6157 19.7287C52.556 19.6191 52.5071 19.4754 52.4691 19.2974V19.2851H55.4589V18.8004C55.4589 18.4746 55.4141 18.1775 55.3245 17.9091C55.2349 17.638 55.1046 17.4067 54.9335 17.215C54.7597 17.0233 54.5479 16.8755 54.298 16.7714C54.0509 16.6646 53.7685 16.6112 53.4508 16.6112C53.1439 16.6112 52.8601 16.6673 52.5994 16.7796C52.3387 16.8919 52.1133 17.0493 51.9233 17.252C51.7332 17.4546 51.5852 17.6969 51.4793 17.9789C51.3734 18.2582 51.3204 18.5677 51.3204 18.9072V19.0715C51.3204 19.37 51.3734 19.6506 51.4793 19.9135C51.5879 20.1736 51.7413 20.3995 51.9396 20.5912C52.1378 20.7856 52.3754 20.9389 52.6524 21.0512C52.9294 21.1635 53.2376 21.2196 53.577 21.2196ZM53.4426 17.5354C53.5865 17.5354 53.7128 17.5586 53.8214 17.6052C53.9328 17.649 54.0265 17.7092 54.1025 17.7859C54.1785 17.8653 54.2383 17.9584 54.2817 18.0652C54.3252 18.172 54.3469 18.2856 54.3469 18.4061V18.4965H52.4895C52.5166 18.3513 52.5573 18.2199 52.6117 18.1022C52.666 17.9844 52.7339 17.8831 52.8153 17.7982C52.8941 17.7133 52.9864 17.649 53.0923 17.6052C53.1982 17.5586 53.315 17.5354 53.4426 17.5354Z" fill="white"/>
<path d="M59.6138 16.6112C59.3178 16.6112 59.0449 16.6838 58.795 16.8289C58.5452 16.9713 58.3307 17.1684 58.1514 17.4204L58.1433 17.3218L58.0985 16.6934H57.0435V21.1375H58.1759V18.4677C58.2275 18.3418 58.2926 18.2322 58.3714 18.1391C58.4501 18.046 58.5452 17.9694 58.6565 17.9091C58.7489 17.8571 58.8534 17.8188 58.9702 17.7941C59.0897 17.7667 59.2227 17.753 59.3694 17.753C59.5106 17.753 59.6586 17.7626 59.8134 17.7818C59.9709 17.7982 60.1243 17.8242 60.2737 17.8598L60.4407 16.7221C60.351 16.6947 60.2329 16.6701 60.0863 16.6482C59.9424 16.6235 59.7848 16.6112 59.6138 16.6112Z" fill="white"/>
<path d="M62.1637 16.6934H61.1902V21.1375H62.2207V17.8105C62.2343 17.775 62.2492 17.7421 62.2655 17.712C62.2818 17.6819 62.3008 17.6558 62.3226 17.6339C62.3524 17.6038 62.3864 17.5805 62.4244 17.5641C62.4624 17.5477 62.5059 17.5395 62.5547 17.5395C62.5982 17.5395 62.6389 17.5463 62.6769 17.56C62.715 17.571 62.7489 17.5915 62.7788 17.6216C62.8059 17.6517 62.8276 17.6942 62.8439 17.7489C62.8602 17.8037 62.8684 17.8735 62.8684 17.9584V21.1375H63.8664V17.8598C63.8664 17.827 63.8664 17.801 63.8664 17.7818C63.8664 17.7626 63.8664 17.7503 63.8664 17.7448C63.8799 17.7147 63.8962 17.6887 63.9152 17.6668C63.9342 17.6421 63.956 17.6202 63.9804 17.6011C64.0103 17.5819 64.0415 17.5668 64.0741 17.5559C64.1094 17.5449 64.1488 17.5395 64.1922 17.5395C64.233 17.5395 64.2723 17.5463 64.3104 17.56C64.3511 17.571 64.3864 17.5915 64.4163 17.6216C64.4461 17.6545 64.4692 17.6983 64.4855 17.753C64.5045 17.8078 64.514 17.8776 64.514 17.9625V21.1375H65.5446V17.9666C65.5446 17.7202 65.5201 17.5121 65.4713 17.3423C65.4251 17.1698 65.3599 17.0288 65.2757 16.9193C65.1888 16.8125 65.087 16.7344 64.9702 16.6851C64.8562 16.6359 64.7326 16.6112 64.5996 16.6112C64.4937 16.6112 64.3959 16.6249 64.3063 16.6523C64.2167 16.6797 64.1366 16.718 64.066 16.7673C64.0089 16.8056 63.956 16.8522 63.9071 16.9069C63.8609 16.959 63.8188 17.0178 63.7808 17.0836C63.7564 17.0151 63.7265 16.9549 63.6912 16.9028C63.6586 16.8481 63.6192 16.8015 63.5731 16.7632C63.5133 16.7112 63.4427 16.6728 63.3613 16.6482C63.2798 16.6235 63.1875 16.6112 63.0843 16.6112C62.8725 16.6112 62.6919 16.6673 62.5425 16.7796C62.3959 16.8891 62.2805 17.0397 62.1963 17.2314L62.1637 16.6934Z" fill="white"/>
<path d="M69.2228 21.1375H70.3715V21.0676C70.3145 20.9554 70.271 20.8212 70.2412 20.6651C70.2113 20.509 70.1964 20.3119 70.1964 20.0737V18.1679C70.1964 17.9105 70.1488 17.6846 70.0538 17.4902C69.9587 17.293 69.827 17.1301 69.6587 17.0014C69.4903 16.8727 69.2907 16.7755 69.0599 16.7098C68.8318 16.6441 68.5847 16.6112 68.3185 16.6112C68.0225 16.6112 67.7591 16.6495 67.5283 16.7262C67.3002 16.8001 67.1074 16.9015 66.9499 17.0302C66.7897 17.1589 66.6675 17.3081 66.5833 17.4779C66.5018 17.6476 66.4611 17.827 66.4611 18.0159H67.5935C67.5935 17.9365 67.6043 17.8639 67.6261 17.7982C67.6505 17.7325 67.6872 17.6764 67.736 17.6298C67.7904 17.5778 67.861 17.5381 67.9479 17.5107C68.0348 17.4806 68.138 17.4655 68.2574 17.4655C68.3932 17.4655 68.5113 17.4833 68.6118 17.5189C68.715 17.5518 68.8006 17.5997 68.8684 17.6627C68.9336 17.7229 68.9825 17.7955 69.0151 17.8804C69.0477 17.9625 69.064 18.0556 69.064 18.1597V18.4225H68.4326C68.1067 18.4225 67.8175 18.4527 67.565 18.5129C67.3151 18.5704 67.1047 18.6553 66.9336 18.7675C66.7435 18.8908 66.6009 19.0482 66.5059 19.2399C66.4108 19.4288 66.3633 19.6465 66.3633 19.893C66.3633 20.0846 66.4013 20.2626 66.4774 20.4269C66.5534 20.5885 66.6593 20.7281 66.7951 20.8458C66.9309 20.9636 67.0925 21.0553 67.2798 21.121C67.4699 21.1868 67.6777 21.2196 67.9031 21.2196C68.0416 21.2196 68.1705 21.2059 68.29 21.1785C68.4095 21.1539 68.5195 21.1183 68.62 21.0717C68.7177 21.0279 68.8073 20.9759 68.8888 20.9157C68.9703 20.8554 69.0422 20.7911 69.1047 20.7226C69.1183 20.802 69.1346 20.8773 69.1536 20.9485C69.1726 21.0197 69.1957 21.0827 69.2228 21.1375ZM68.1434 20.3365C68.0375 20.3365 67.9438 20.3242 67.8623 20.2996C67.7836 20.2722 67.717 20.2366 67.6627 20.1928C67.6084 20.1462 67.5663 20.0901 67.5365 20.0244C67.5093 19.9559 67.4957 19.882 67.4957 19.8026C67.4957 19.7013 67.5147 19.6082 67.5527 19.5233C67.5908 19.4357 67.6491 19.3604 67.7279 19.2974C67.8067 19.2372 67.9085 19.1906 68.0334 19.1577C68.1583 19.1221 68.309 19.1043 68.4855 19.1043H69.064V19.8683C69.0314 19.9258 68.9866 19.9833 68.9295 20.0408C68.8725 20.0956 68.8046 20.1449 68.7259 20.1887C68.6471 20.2325 68.5589 20.2681 68.4611 20.2955C68.3633 20.3229 68.2574 20.3365 68.1434 20.3365Z" fill="white"/>
<path d="M71.4795 21.1375H72.6159V17.9789C72.654 17.9187 72.696 17.8639 72.7422 17.8147C72.7884 17.7654 72.84 17.7229 72.897 17.6873C72.9676 17.638 73.0477 17.6011 73.1373 17.5764C73.2297 17.5518 73.3301 17.5395 73.4388 17.5395C73.5691 17.5395 73.6859 17.5532 73.7891 17.5805C73.8923 17.6052 73.9805 17.6504 74.0538 17.7161C74.1272 17.7818 74.1828 17.8722 74.2208 17.9872C74.2616 18.0994 74.2819 18.2432 74.2819 18.4184V21.1375H75.4143V18.402C75.4143 18.0789 75.3763 17.8051 75.3003 17.5805C75.227 17.3533 75.1238 17.1671 74.9907 17.0219C74.8549 16.8796 74.6947 16.7755 74.5101 16.7098C74.3254 16.6441 74.1217 16.6112 73.899 16.6112C73.7253 16.6112 73.561 16.6359 73.4062 16.6851C73.2514 16.7344 73.1088 16.8056 72.9785 16.8987C72.9024 16.9535 72.8305 17.0151 72.7626 17.0836C72.6947 17.152 72.6322 17.2273 72.5752 17.3095L72.506 16.6934H71.4795V21.1375Z" fill="white"/>
<path d="M78.6282 21.2196C79.0546 21.2196 79.4239 21.1361 79.7362 20.9691C80.0485 20.802 80.2766 20.6158 80.4205 20.4105L79.8543 19.7944C79.724 19.9641 79.5542 20.0915 79.3451 20.1764C79.136 20.2612 78.9201 20.3037 78.6975 20.3037C78.54 20.3037 78.3947 20.279 78.2616 20.2298C78.1286 20.1805 78.0104 20.1106 77.9072 20.0203C77.8068 19.9327 77.7266 19.8354 77.6669 19.7287C77.6072 19.6191 77.5583 19.4754 77.5203 19.2974V19.2851H80.5101V18.8004C80.5101 18.4746 80.4653 18.1775 80.3757 17.9091C80.2861 17.638 80.1557 17.4067 79.9846 17.215C79.8108 17.0233 79.599 16.8755 79.3492 16.7714C79.1021 16.6646 78.8197 16.6112 78.5019 16.6112C78.1951 16.6112 77.9113 16.6673 77.6506 16.7796C77.3899 16.8919 77.1645 17.0493 76.9744 17.252C76.7843 17.4546 76.6363 17.6969 76.5304 17.9789C76.4245 18.2582 76.3716 18.5677 76.3716 18.9072V19.0715C76.3716 19.37 76.4245 19.6506 76.5304 19.9135C76.6391 20.1736 76.7925 20.3995 76.9907 20.5912C77.189 20.7856 77.4266 20.9389 77.7036 21.0512C77.9806 21.1635 78.2888 21.2196 78.6282 21.2196ZM78.4938 17.5354C78.6377 17.5354 78.764 17.5586 78.8726 17.6052C78.984 17.649 79.0776 17.7092 79.1537 17.7859C79.2297 17.8653 79.2895 17.9584 79.3329 18.0652C79.3764 18.172 79.3981 18.2856 79.3981 18.4061V18.4965H77.5406C77.5678 18.3513 77.6085 18.2199 77.6628 18.1022C77.7171 17.9844 77.785 17.8831 77.8665 17.7982C77.9453 17.7133 78.0376 17.649 78.1435 17.6052C78.2494 17.5586 78.3662 17.5354 78.4938 17.5354Z" fill="white"/>
<path d="M81.4999 21.1375H82.6364V17.9789C82.6744 17.9187 82.7165 17.8639 82.7627 17.8147C82.8088 17.7654 82.8604 17.7229 82.9175 17.6873C82.9881 17.638 83.0682 17.6011 83.1578 17.5764C83.2501 17.5518 83.3506 17.5395 83.4592 17.5395C83.5896 17.5395 83.7063 17.5532 83.8095 17.5805C83.9127 17.6052 84.001 17.6504 84.0743 17.7161C84.1476 17.7818 84.2033 17.8722 84.2413 17.9872C84.282 18.0994 84.3024 18.2432 84.3024 18.4184V21.1375H85.4348V18.402C85.4348 18.0789 85.3968 17.8051 85.3208 17.5805C85.2474 17.3533 85.1442 17.1671 85.0112 17.0219C84.8754 16.8796 84.7152 16.7755 84.5305 16.7098C84.3459 16.6441 84.1422 16.6112 83.9195 16.6112C83.7457 16.6112 83.5814 16.6359 83.4266 16.6851C83.2718 16.7344 83.1293 16.8056 82.9989 16.8987C82.9229 16.9535 82.8509 17.0151 82.783 17.0836C82.7152 17.152 82.6527 17.2273 82.5957 17.3095L82.5264 16.6934H81.4999V21.1375Z" fill="white"/>
<path d="M88.5876 15.6049H87.4552V16.6934H86.4491V17.5354H87.4552V19.5562C87.4552 19.8491 87.4932 20.1011 87.5692 20.3119C87.6453 20.52 87.7539 20.6911 87.8951 20.8253C88.0336 20.9622 88.2006 21.0635 88.3961 21.1293C88.5944 21.1922 88.8143 21.2237 89.056 21.2237C89.1809 21.2237 89.3072 21.2169 89.4348 21.2032C89.5652 21.1922 89.6901 21.1758 89.8096 21.1539C89.9291 21.132 90.0418 21.1046 90.1477 21.0717C90.2536 21.0362 90.3459 20.9951 90.4247 20.9485L90.3147 20.164C90.2631 20.1777 90.2006 20.1914 90.1273 20.2051C90.0567 20.2188 89.9807 20.2311 89.8992 20.2421C89.815 20.2558 89.7268 20.2667 89.6344 20.2749C89.5448 20.2831 89.4566 20.2873 89.3697 20.2873C89.2502 20.2873 89.1416 20.2736 89.0438 20.2462C88.9488 20.2188 88.8673 20.1722 88.7994 20.1065C88.7315 20.0436 88.6786 19.9587 88.6405 19.8519C88.6052 19.7424 88.5876 19.6068 88.5876 19.4453V17.5354H90.2332V16.6934H88.5876V15.6049Z" fill="white"/>
<path d="M45.6631 28.9036V28.9832C45.6631 29.284 45.7057 29.5621 45.791 29.8173C45.8762 30.0701 46.0015 30.29 46.167 30.477C46.3299 30.6641 46.5304 30.8107 46.7686 30.9168C47.0092 31.0205 47.2824 31.0723 47.5883 31.0723C47.8916 31.0723 48.1623 31.0205 48.4004 30.9168C48.6386 30.8107 48.8391 30.6641 49.002 30.477C49.165 30.29 49.289 30.0701 49.3743 29.8173C49.4595 29.5621 49.5021 29.284 49.5021 28.9832V28.9036C49.5021 28.6054 49.4595 28.3299 49.3743 28.0771C49.289 27.8218 49.165 27.6007 49.002 27.4136C48.8366 27.2266 48.6348 27.08 48.3967 26.9738C48.1585 26.8677 47.8866 26.8146 47.5807 26.8146C47.2749 26.8146 47.0029 26.8677 46.7648 26.9738C46.5292 27.08 46.3299 27.2266 46.167 27.4136C46.0015 27.6007 45.8762 27.8218 45.791 28.0771C45.7057 28.3299 45.6631 28.6054 45.6631 28.9036ZM46.7084 28.9832V28.9036C46.7084 28.7368 46.7247 28.5788 46.7573 28.4297C46.7899 28.2806 46.8413 28.1491 46.9115 28.0354C46.9816 27.9217 47.0719 27.8319 47.1822 27.7662C47.2925 27.7005 47.4253 27.6676 47.5807 27.6676C47.7387 27.6676 47.8728 27.7005 47.9831 27.7662C48.0934 27.8319 48.1836 27.9217 48.2538 28.0354C48.3215 28.1491 48.3716 28.2806 48.4042 28.4297C48.4368 28.5788 48.4531 28.7368 48.4531 28.9036V28.9832C48.4531 29.1551 48.4368 29.3169 48.4042 29.4685C48.3716 29.6177 48.3215 29.7478 48.2538 29.8591C48.1836 29.9728 48.0934 30.0625 47.9831 30.1282C47.8728 30.194 47.7412 30.2268 47.5883 30.2268C47.4303 30.2268 47.295 30.194 47.1822 30.1282C47.0719 30.0625 46.9816 29.9728 46.9115 29.8591C46.8413 29.7478 46.7899 29.6177 46.7573 29.4685C46.7247 29.3169 46.7084 29.1551 46.7084 28.9832Z" fill="white"/>
<path d="M50.4308 30.9927H51.4799V28.0771C51.515 28.0215 51.5538 27.971 51.5964 27.9255C51.6391 27.88 51.6867 27.8408 51.7393 27.8079C51.8045 27.7624 51.8784 27.7283 51.9612 27.7056C52.0464 27.6828 52.1391 27.6714 52.2394 27.6714C52.3597 27.6714 52.4675 27.6841 52.5628 27.7094C52.658 27.7321 52.7395 27.7738 52.8072 27.8345C52.8749 27.8951 52.9262 27.9785 52.9613 28.0847C52.9989 28.1883 53.0177 28.321 53.0177 28.4828V30.9927H54.063V28.4676C54.063 28.1694 54.0279 27.9166 53.9577 27.7094C53.8901 27.4996 53.7948 27.3277 53.672 27.1937C53.5466 27.0623 53.3988 26.9662 53.2283 26.9056C53.0578 26.8449 52.8698 26.8146 52.6643 26.8146C52.5039 26.8146 52.3522 26.8373 52.2093 26.8828C52.0664 26.9283 51.9348 26.994 51.8145 27.08C51.7443 27.1305 51.6779 27.1874 51.6152 27.2506C51.5526 27.3138 51.4949 27.3833 51.4423 27.4591L51.3784 26.8904H50.4308V30.9927Z" fill="white"/>
<path d="M62.3351 29.8401L62.6547 30.9927H63.7677L62.008 25.4724H61.0492L59.2556 30.9927H60.3686L60.6919 29.8401H62.3351ZM60.9514 28.934L61.5267 26.9018L62.0869 28.934H60.9514Z" fill="white"/>
<path d="M67.2269 26.8146C66.9536 26.8146 66.7017 26.8816 66.4711 27.0155C66.2405 27.147 66.0425 27.329 65.877 27.5615L65.8695 27.4705L65.8281 26.8904H64.8543V30.9927H65.8996V28.5283C65.9472 28.412 66.0074 28.3109 66.0801 28.225C66.1528 28.139 66.2405 28.0683 66.3433 28.0127C66.4285 27.9646 66.525 27.9293 66.6328 27.9065C66.7431 27.8812 66.8659 27.8686 67.0013 27.8686C67.1316 27.8686 67.2682 27.8774 67.4111 27.8951C67.5565 27.9103 67.6981 27.9343 67.836 27.9672L67.9902 26.917C67.9074 26.8917 67.7984 26.8689 67.663 26.8487C67.5302 26.826 67.3848 26.8146 67.2269 26.8146Z" fill="white"/>
<path d="M69.231 30.9927H70.1484L70.5808 28.8013L70.6635 28.3842L70.75 28.8013L71.1975 30.9927H72.1149L72.8444 26.8904H71.8856L71.5847 29.3093L71.5321 29.7074L71.4607 29.3169L71.0207 26.8904H70.3214L69.8815 29.3283L69.81 29.7188L69.7611 29.3283L69.4566 26.8904H68.5015L69.231 30.9927Z" fill="white"/>
<path d="M75.529 31.0685C75.9226 31.0685 76.2635 30.9914 76.5517 30.8372C76.84 30.683 77.0506 30.5112 77.1834 30.3216L76.6608 29.7529C76.5405 29.9096 76.3838 30.0271 76.1908 30.1055C75.9978 30.1838 75.7985 30.223 75.5929 30.223C75.4475 30.223 75.3134 30.2003 75.1906 30.1548C75.0678 30.1093 74.9587 30.0448 74.8635 29.9614C74.7707 29.8805 74.6968 29.7908 74.6416 29.6922C74.5865 29.5911 74.5414 29.4584 74.5063 29.2941V29.2828H77.2661V28.8354C77.2661 28.5346 77.2248 28.2604 77.1421 28.0127C77.0593 27.7624 76.939 27.5489 76.7811 27.3719C76.6207 27.195 76.4252 27.0585 76.1945 26.9625C75.9664 26.8639 75.7057 26.8146 75.4125 26.8146C75.1292 26.8146 74.8673 26.8664 74.6266 26.97C74.386 27.0737 74.1779 27.219 74.0024 27.406C73.827 27.5931 73.6904 27.8168 73.5926 28.0771C73.4948 28.3349 73.446 28.6205 73.446 28.934V29.0856C73.446 29.3611 73.4948 29.6202 73.5926 29.8628C73.6929 30.103 73.8345 30.3115 74.0175 30.4884C74.2005 30.6679 74.4198 30.8094 74.6755 30.9131C74.9312 31.0167 75.2157 31.0685 75.529 31.0685ZM75.4049 27.6676C75.5378 27.6676 75.6544 27.6891 75.7546 27.7321C75.8574 27.7725 75.9439 27.8281 76.0141 27.8989C76.0842 27.9722 76.1394 28.0582 76.1795 28.1567C76.2196 28.2553 76.2397 28.3602 76.2397 28.4714V28.5548H74.5251C74.5502 28.4209 74.5878 28.2995 74.6379 28.1909C74.688 28.0822 74.7507 27.9886 74.8259 27.9103C74.8986 27.8319 74.9838 27.7725 75.0816 27.7321C75.1793 27.6891 75.2871 27.6676 75.4049 27.6676Z" fill="white"/>
<path d="M80.7216 30.9927H81.7819V30.9282C81.7293 30.8246 81.6892 30.7007 81.6616 30.5567C81.634 30.4126 81.6203 30.2306 81.6203 30.0107V28.2515C81.6203 28.0139 81.5764 27.8054 81.4887 27.6259C81.4009 27.444 81.2793 27.2936 81.1239 27.1748C80.9685 27.056 80.7843 26.9662 80.5712 26.9056C80.3606 26.8449 80.1325 26.8146 79.8869 26.8146C79.6137 26.8146 79.3705 26.85 79.1574 26.9207C78.9469 26.989 78.7689 27.0825 78.6235 27.2013C78.4756 27.3201 78.3628 27.4579 78.2851 27.6146C78.2099 27.7713 78.1723 27.9368 78.1723 28.1112H79.2176C79.2176 28.0379 79.2276 27.971 79.2477 27.9103C79.2702 27.8496 79.3041 27.7978 79.3492 27.7548C79.3993 27.7068 79.4645 27.6702 79.5447 27.6449C79.6249 27.6171 79.7202 27.6032 79.8305 27.6032C79.9558 27.6032 80.0649 27.6196 80.1576 27.6525C80.2529 27.6828 80.3318 27.727 80.3945 27.7852C80.4547 27.8408 80.4998 27.9078 80.5298 27.9861C80.5599 28.0619 80.575 28.1479 80.575 28.2439V28.4866H79.9922C79.6914 28.4866 79.4244 28.5144 79.1913 28.57C78.9607 28.6231 78.7664 28.7014 78.6085 28.8051C78.433 28.9188 78.3014 29.0641 78.2137 29.2411C78.1259 29.4155 78.0821 29.6164 78.0821 29.8439C78.0821 30.0208 78.1172 30.1851 78.1874 30.3368C78.2575 30.4859 78.3553 30.6148 78.4806 30.7235C78.606 30.8322 78.7551 30.9168 78.9281 30.9775C79.1035 31.0382 79.2953 31.0685 79.5034 31.0685C79.6312 31.0685 79.7503 31.0559 79.8606 31.0306C79.9709 31.0078 80.0724 30.975 80.1651 30.932C80.2554 30.8916 80.3381 30.8435 80.4133 30.7879C80.4885 30.7323 80.5549 30.6729 80.6126 30.6097C80.6251 30.683 80.6401 30.7525 80.6577 30.8183C80.6752 30.884 80.6965 30.9421 80.7216 30.9927ZM79.7252 30.2534C79.6274 30.2534 79.541 30.242 79.4658 30.2192C79.3931 30.194 79.3317 30.1611 79.2815 30.1207C79.2314 30.0777 79.1925 30.0259 79.165 29.9652C79.1399 29.902 79.1274 29.8338 79.1274 29.7605C79.1274 29.667 79.1449 29.581 79.18 29.5027C79.2151 29.4218 79.269 29.3523 79.3417 29.2941C79.4144 29.2385 79.5084 29.1956 79.6237 29.1652C79.739 29.1324 79.8781 29.1159 80.041 29.1159H80.575V29.8211C80.5449 29.8742 80.5035 29.9273 80.4509 29.9804C80.3982 30.0309 80.3356 30.0764 80.2629 30.1169C80.1902 30.1573 80.1087 30.1902 80.0185 30.2154C79.9282 30.2407 79.8305 30.2534 79.7252 30.2534Z" fill="white"/>
<path d="M84.0981 30.9927H85.0795L86.6249 26.8904H85.5344L84.6433 29.7832L84.5869 30.0714L84.5305 29.7832L83.6356 26.8904H82.5452L84.0981 30.9927Z" fill="white"/>
<path d="M89.4035 31.0685C89.7971 31.0685 90.138 30.9914 90.4262 30.8372C90.7145 30.683 90.9251 30.5112 91.0579 30.3216L90.5353 29.7529C90.415 29.9096 90.2583 30.0271 90.0653 30.1055C89.8723 30.1838 89.673 30.223 89.4674 30.223C89.322 30.223 89.1879 30.2003 89.0651 30.1548C88.9423 30.1093 88.8332 30.0448 88.738 29.9614C88.6452 29.8805 88.5713 29.7908 88.5161 29.6922C88.461 29.5911 88.4159 29.4584 88.3808 29.2941V29.2828H91.1406V28.8354C91.1406 28.5346 91.0993 28.2604 91.0166 28.0127C90.9338 27.7624 90.8135 27.5489 90.6556 27.3719C90.4952 27.195 90.2997 27.0585 90.069 26.9625C89.8409 26.8639 89.5802 26.8146 89.287 26.8146C89.0037 26.8146 88.7417 26.8664 88.5011 26.97C88.2605 27.0737 88.0524 27.219 87.8769 27.406C87.7015 27.5931 87.5649 27.8168 87.4671 28.0771C87.3693 28.3349 87.3205 28.6205 87.3205 28.934V29.0856C87.3205 29.3611 87.3693 29.6202 87.4671 29.8628C87.5674 30.103 87.709 30.3115 87.892 30.4884C88.075 30.6679 88.2943 30.8094 88.55 30.9131C88.8057 31.0167 89.0902 31.0685 89.4035 31.0685ZM89.2794 27.6676C89.4123 27.6676 89.5288 27.6891 89.6291 27.7321C89.7319 27.7725 89.8184 27.8281 89.8886 27.8989C89.9587 27.9722 90.0139 28.0582 90.054 28.1567C90.0941 28.2553 90.1142 28.3602 90.1142 28.4714V28.5548H88.3996C88.4247 28.4209 88.4623 28.2995 88.5124 28.1909C88.5625 28.0822 88.6252 27.9886 88.7004 27.9103C88.7731 27.8319 88.8583 27.7725 88.9561 27.7321C89.0538 27.6891 89.1616 27.6676 89.2794 27.6676Z" fill="white"/>
<rect x="2.29545" y="2.29545" width="95.4091" height="43.4091" rx="3.25" stroke="black" stroke-width="0.590909"/>
</g>
<defs>
<filter id="filter0_d_229_2251" x="0.227273" y="0.227273" width="100.727" height="48.7273" filterUnits="userSpaceOnUse" color-interpolation-filters="sRGB">
<feFlood flood-opacity="0" result="BackgroundImageFix"/>
<feColorMatrix in="SourceAlpha" type="matrix" values="0 0 0 0 0 0 0 0 0 0 0 0 0 0 0 0 0 0 127 0" result="hardAlpha"/>
<feOffset dx="0.590909" dy="0.590909"/>
<feGaussianBlur stdDeviation="1.18182"/>
<feComposite in2="hardAlpha" operator="out"/>
<feColorMatrix type="matrix" values="0 0 0 0 0 0 0 0 0 0 0 0 0 0 0 0 0 0 0.25 0"/>
<feBlend mode="normal" in2="BackgroundImageFix" result="effect1_dropShadow_229_2251"/>
<feBlend mode="normal" in="SourceGraphic" in2="effect1_dropShadow_229_2251" result="shape"/>
</filter>
</defs>
</svg>
