<svg width="8" height="8" viewBox="0 0 8 8" fill="none" xmlns="http://www.w3.org/2000/svg">
<path d="M5.12644 3.99912L7.76589 1.35762C7.91567 1.20821 8 1.00546 8 0.793986C8 0.582511 7.91583 0.379595 7.76604 0.230352C7.61563 0.0828142 7.41347 0 7.20274 0C6.99217 0 6.78984 0.0828142 6.63945 0.230352L4 2.87608L1.36055 0.230352C1.20812 0.086711 1.00658 0.00670409 0.797256 0.00670409C0.58777 0.00670409 0.386384 0.086711 0.233958 0.230352C0.0841693 0.379607 0 0.582511 0 0.793986C0 1.00546 0.0841693 1.20822 0.233958 1.35762L2.8734 3.99912L0.233958 6.64013C0.0841693 6.78939 0 6.99214 0 7.20361C0 7.41508 0.0841693 7.61784 0.233958 7.76692C0.381719 7.91867 0.58544 8.00289 0.797256 7.99992C1.00861 8.00117 1.21172 7.91711 1.36055 7.76692L4 5.12634L6.63945 7.76692C6.84161 7.9639 7.1326 8.03907 7.40461 7.96499C7.67675 7.89075 7.88934 7.67802 7.96356 7.40587C8.03791 7.13372 7.96278 6.84239 7.76607 6.64009L5.12644 3.99912Z" fill="#05053C"/>
</svg>
