<svg width="28" height="28" viewBox="0 0 28 28" fill="none" xmlns="http://www.w3.org/2000/svg">
<rect width="28" height="28" rx="14" fill="#05053C"/>
<path d="M7.50005 18.273C7.50005 18.72 7.67755 19.1486 7.99357 19.4647C8.30961 19.7807 8.73815 19.9582 9.18519 19.9582H18.8149C19.2619 19.9582 19.6904 19.7807 20.0065 19.4647C20.3225 19.1486 20.5 18.7201 20.5 18.273V15.6249H19.0556V18.273C19.0556 18.3368 19.0303 18.3981 18.9851 18.4433C18.9399 18.4885 18.8786 18.5138 18.8148 18.5138H9.18517C9.05217 18.5138 8.94436 18.406 8.94436 18.273V15.6249H7.5L7.50005 18.273Z" fill="white"/>
<path d="M13.2776 8.04175V13.8842L11.111 11.7176L10.0902 12.7383L13.4895 16.1375C13.6249 16.2728 13.8084 16.3487 13.9999 16.3487C14.1913 16.3487 14.3748 16.2728 14.5102 16.1375L17.9095 12.7383L16.8887 11.7174L14.7221 13.884V8.04201L13.2776 8.04175Z" fill="white"/>
</svg>
