<svg width="20" height="20" viewBox="0 0 20 20" fill="none" xmlns="http://www.w3.org/2000/svg">
<path fill-rule="evenodd" clip-rule="evenodd" d="M9.99993 5.16994e-06C7.62356 -0.00241011 5.32399 0.841523 3.51333 2.38057C1.70267 3.91961 0.499266 6.05316 0.11878 8.39888C-0.261706 10.7446 0.205595 13.1491 1.43694 15.1816C2.66829 17.2141 4.58319 18.7416 6.83848 19.4905C7.34186 19.5826 7.51988 19.2695 7.51988 19.0055C7.51988 18.7416 7.51988 18.14 7.51988 17.3051C4.72676 17.9128 4.13744 15.9607 4.13744 15.9607C3.95214 15.3557 3.55848 14.8359 3.02633 14.4936C2.12393 13.8797 3.09999 13.8797 3.09999 13.8797C3.41632 13.9244 3.71833 14.0404 3.98316 14.2191C4.24799 14.3978 4.46868 14.6344 4.62854 14.911C4.76436 15.1573 4.94749 15.3743 5.1674 15.5497C5.38731 15.725 5.63968 15.8552 5.91002 15.9328C6.18037 16.0103 6.46338 16.0337 6.7428 16.0017C7.02222 15.9696 7.29256 15.8827 7.5383 15.7459C7.57683 15.2409 7.79454 14.7662 8.15217 14.4076C5.92995 14.1559 3.59723 13.2965 3.59723 9.49663C3.58197 8.50399 3.94903 7.54349 4.6224 6.814C4.32249 5.95091 4.35755 5.00668 4.72062 4.16821C4.72062 4.16821 5.56163 3.8981 7.47077 5.19338C9.11017 4.74326 10.8406 4.74326 12.48 5.19338C14.3891 3.8981 15.224 4.16821 15.224 4.16821C15.5921 4.99781 15.6359 5.93527 15.3468 6.79559C16.0201 7.52507 16.3872 8.48557 16.3719 9.47821C16.3719 13.3211 14.0331 14.1621 11.8047 14.3892C12.0437 14.6294 12.2282 14.9181 12.3457 15.2359C12.4633 15.5536 12.5112 15.893 12.4861 16.2308C12.4861 17.5691 12.4861 18.6495 12.4861 18.9748C12.4861 19.3002 12.6641 19.5519 13.1737 19.4537C15.4033 18.685 17.2895 17.1531 18.4991 15.1286C19.7087 13.104 20.1638 10.7171 19.7841 8.3895C19.4044 6.06189 18.2142 3.94339 16.4239 2.40825C14.6335 0.873111 12.3582 0.0201336 9.99993 5.16994e-06Z" fill="white"/>
</svg>
