<svg width="16" height="12" viewBox="0 0 16 12" fill="none" xmlns="http://www.w3.org/2000/svg">
<path fill-rule="evenodd" clip-rule="evenodd" d="M0 3C0 1.34315 1.34315 0 3 0H13C14.6569 0 16 1.34315 16 3V4H10C8.89543 4 8 4.89543 8 6C8 7.10457 8.89543 8 10 8H16V9C16 10.6569 14.6569 12 13 12H3C1.34315 12 0 10.6569 0 9V3ZM10 7.33333C10.7364 7.33333 11.3333 6.73638 11.3333 6C11.3333 5.26362 10.7364 4.66667 10 4.66667C9.26362 4.66667 8.66667 5.26362 8.66667 6C8.66667 6.73638 9.26362 7.33333 10 7.33333Z" fill="#05053C"/>
</svg>
