<svg version="1.1" id="Layer_1" xmlns="http://www.w3.org/2000/svg" xmlns:xlink="http://www.w3.org/1999/xlink" x="0px" y="0px" 
	 viewBox="0 0 134.9 135.4" style="enable-background:new 0 134.9 134.9 135.4;" xml:space="preserve">
<style type="text/css">
	.st0{fill:#222326;}
	.st1{fill:none;stroke:#222326;stroke-width:9.6521;stroke-miterlimit:10;}
</style>
<rect width="100%" height="100%" fill="white"/>
<g>
	<path class="st0" d="M77.6,91.5c-0.3-0.6-0.6-1.3-0.8-2.1c-0.2-0.8-0.4-1.6-0.5-2.5c-0.7,0.8-1.5,1.5-2.4,2.2
		c-0.9,0.7-1.9,1.3-3,1.8c-1.1,0.5-2.3,0.9-3.7,1.2c-1.3,0.3-2.8,0.4-4.4,0.4c-2.5,0-4.9-0.4-7-1.1c-2.1-0.7-3.9-1.8-5.5-3.1
		c-1.5-1.3-2.7-2.9-3.6-4.7c-0.9-1.8-1.3-3.8-1.3-5.9c0-5.2,1.9-9.3,5.8-12.1c3.9-2.9,9.7-4.3,17.4-4.3h7.1v-2.9
		c0-2.4-0.8-4.3-2.3-5.7c-1.6-1.4-3.8-2.1-6.7-2.1c-2.6,0-4.5,0.6-5.7,1.7c-1.2,1.1-1.8,2.6-1.8,4.5H46.5c0-2.1,0.5-4.1,1.4-6
		c0.9-1.9,2.3-3.6,4.1-5c1.8-1.4,4-2.6,6.6-3.4c2.6-0.8,5.5-1.3,8.9-1.3c3,0,5.8,0.4,8.4,1.1c2.6,0.7,4.8,1.8,6.7,3.3
		c1.9,1.4,3.4,3.2,4.4,5.4c1.1,2.2,1.6,4.7,1.6,7.6v21.3c0,2.7,0.2,4.9,0.5,6.6c0.3,1.7,0.8,3.2,1.5,4.5v0.8H77.6z M65.5,82.6
		c1.3,0,2.5-0.2,3.6-0.5c1.1-0.3,2.1-0.7,3-1.2c0.9-0.5,1.6-1,2.3-1.7c0.6-0.6,1.1-1.3,1.5-1.9v-8.5h-6.5c-2,0-3.7,0.2-5.1,0.6
		c-1.4,0.4-2.6,0.9-3.4,1.6c-0.9,0.7-1.5,1.5-2,2.5c-0.4,1-0.6,2-0.6,3.1c0,1.7,0.6,3.1,1.8,4.3C61.2,82,63,82.6,65.5,82.6z"/>
</g>
<circle class="st1" cx="67.3" cy="68.1" r="61.7"/>
</svg>
